<?xml version="1.0" encoding="UTF-8"?>
<svg version="1.1" xmlns="http://www.w3.org/2000/svg" width="1110" height="1044">
<path d="M0 0 C366.3 0 732.6 0 1110 0 C1110 344.52 1110 689.04 1110 1044 C743.7 1044 377.4 1044 0 1044 C0 699.48 0 354.96 0 0 Z " fill="#F0EEEB" transform="translate(0,0)"/>
<path d="M0 0 C0.73072723 -0.00233643 1.46145447 -0.00467285 2.21432495 -0.00708008 C13.77704681 -0.02103686 24.86037021 0.76895984 36.1875 3.25 C36.1875 3.91 36.1875 4.57 36.1875 5.25 C37.09628906 5.41435547 37.09628906 5.41435547 38.0234375 5.58203125 C44.21893795 6.75441057 50.18210467 8.33338447 56.1875 10.25 C56.1875 10.91 56.1875 11.57 56.1875 12.25 C56.87714844 12.39695312 57.56679688 12.54390625 58.27734375 12.6953125 C65.37480486 14.38935672 70.34672774 16.96957845 76.1875 21.25 C77.60203181 22.14920052 79.01874661 23.04497514 80.4375 23.9375 C88.70064085 29.43656204 96.24876767 36.17623246 103.1875 43.25 C103.79561523 43.82435791 104.40373047 44.39871582 105.03027344 44.99047852 C110.21569531 49.95849143 114.26958776 55.24468005 118.1875 61.25 C118.79053955 62.16773193 119.3935791 63.08546387 120.01489258 64.03100586 C127.84131188 76.12867536 136.1875 89.37824991 136.1875 104.25 C136.8475 104.25 137.5075 104.25 138.1875 104.25 C143.77220363 125.72451516 143.33727594 151.73129339 138.1875 173.25 C137.5275 173.25 136.8675 173.25 136.1875 173.25 C136.02314453 174.98830078 136.02314453 174.98830078 135.85546875 176.76171875 C135.30511239 181.12903175 134.09463612 184.97460696 132.5 189.0625 C132.2309082 189.76044678 131.96181641 190.45839355 131.68457031 191.17749023 C129.32005356 197.16534611 126.56630688 202.76227339 123.1875 208.25 C122.6618042 209.10609863 122.6618042 209.10609863 122.12548828 209.97949219 C110.07358742 229.38708518 93.95552659 244.42481121 75.1875 257.25 C74.341875 257.83136719 73.49625 258.41273438 72.625 259.01171875 C66.46286413 262.97755281 59.8897085 265.4190418 53.01953125 267.85546875 C50.47364077 268.75871478 48.05356642 269.74173819 45.56640625 270.8203125 C37.59783149 274.19198691 29.80955893 275.68110295 21.1875 275.25 C21.1875 275.91 21.1875 276.57 21.1875 277.25 C14.50422251 278.11191706 7.98505888 278.403398 1.25 278.375 C0.30576172 278.37886719 -0.63847656 278.38273437 -1.61132812 278.38671875 C-2.51173828 278.38542969 -3.41214844 278.38414062 -4.33984375 278.3828125 C-5.55788696 278.38112061 -5.55788696 278.38112061 -6.80053711 278.37939453 C-8.8125 278.25 -8.8125 278.25 -10.8125 277.25 C-12.2042201 277.02144138 -13.60300798 276.83499431 -15.00390625 276.671875 C-26.70235958 275.21356408 -37.62190876 272.96064166 -48.8125 269.25 C-48.8125 268.59 -48.8125 267.93 -48.8125 267.25 C-49.658125 267.1675 -50.50375 267.085 -51.375 267 C-54.8449027 266.24293032 -57.04770438 265.1496193 -60.00390625 263.28515625 C-61.84094535 262.1705009 -61.84094535 262.1705009 -64.09765625 261.38671875 C-76.81647819 256.06128395 -87.23548297 245.87208534 -96.8125 236.25 C-97.740625 235.321875 -98.66875 234.39375 -99.625 233.4375 C-111.27971402 221.20005028 -124.41563848 203.32763834 -126.8125 186.25 C-127.4725 186.25 -128.1325 186.25 -128.8125 186.25 C-139.8314026 144.82397306 -138.74501875 104.15821334 -117 66.5 C-115.32822497 63.69968118 -113.62186497 60.96404745 -111.8125 58.25 C-111.1525 58.25 -110.4925 58.25 -109.8125 58.25 C-109.56757813 57.53457031 -109.32265625 56.81914062 -109.0703125 56.08203125 C-98.49248878 32.2655027 -67.39790543 15.46899207 -44.4375 6.578125 C-37.39194999 3.99678125 -31.29524361 2.97790023 -23.8125 3.25 C-23.8125 2.59 -23.8125 1.93 -23.8125 1.25 C-15.91039033 -0.02089702 -7.98332486 0.01158958 0 0 Z " fill="#171919" transform="translate(278.8125,337.75)"/>
<path d="M0 0 C0 0.66 0 1.32 0 2 C0.70382812 1.96519531 1.40765625 1.93039062 2.1328125 1.89453125 C14.80705304 1.54706513 25.75185543 4.29463364 37 10 C38.27106783 10.60900405 39.54328256 11.21561799 40.81640625 11.8203125 C49.35373392 15.91896497 57.3007695 20.44499964 65 26 C65.90363281 26.64453125 66.80726563 27.2890625 67.73828125 27.953125 C72.40023897 31.40427877 72.40023897 31.40427877 74 33 C74 36 74 36 72.6015625 37.47265625 C71.94929687 37.99730469 71.29703125 38.52195312 70.625 39.0625 C61.71839762 46.11922187 61.71839762 46.11922187 55 55 C50.64098008 54.48033037 48.42423439 53.0282146 45.125 50.1875 C23.72675134 32.48186947 -6.0056467 29.89715363 -32.67431641 32.234375 C-40.28081892 33.23735777 -47.24330954 35.41551845 -54 39 C-55.54300781 39.77537109 -55.54300781 39.77537109 -57.1171875 40.56640625 C-64.00439659 44.12135136 -70.12979712 47.946521 -76 53 C-76.89589844 53.75152344 -77.79179687 54.50304687 -78.71484375 55.27734375 C-86.84210544 62.33434875 -93.56809162 70.15401297 -98.07421875 80 C-98.73223894 81.42154573 -99.45024735 82.81598225 -100.20703125 84.1875 C-111.57401787 105.06704037 -112.14117021 132.52069631 -105.6796875 155.01953125 C-101.59263863 167.75841737 -95.5821856 179.70137728 -87 190 C-86.37609375 190.7734375 -85.7521875 191.546875 -85.109375 192.34375 C-72.30076876 207.54746147 -55.18490833 217.37100538 -36 222 C-34.32357422 222.52400391 -34.32357422 222.52400391 -32.61328125 223.05859375 C-26.80575687 224.50142726 -20.87308082 224.37203012 -14.92089844 224.37060547 C-12.89951207 224.37494735 -10.8803723 224.41126343 -8.859375 224.44921875 C-0.56088382 224.47357831 6.17104847 223.48694004 14.00732422 220.86181641 C16.85331132 220.0422427 19.06197806 219.82757607 22 220 C22 219.34 22 218.68 22 218 C22.78310547 217.67128906 22.78310547 217.67128906 23.58203125 217.3359375 C46.68352986 207.38327785 65.8642738 190.60274113 75.83691406 167.02099609 C77.7793973 162.08222672 79.41972416 157.0641225 81 152 C81.34289062 150.97777344 81.68578125 149.95554687 82.0390625 148.90234375 C84.17417046 141.48932872 84.30422741 134.09891334 84.375 126.4375 C84.38901855 125.39658203 84.40303711 124.35566406 84.41748047 123.28320312 C84.31650349 106.84725816 78.52437564 85.91758982 68 73 C62.95619511 66.56882461 62.95619511 66.56882461 63.15063477 64.04394531 C64.20917157 61.49664146 65.57308808 60.05470051 67.52734375 58.109375 C68.59178711 57.04589844 68.59178711 57.04589844 69.67773438 55.9609375 C70.42345703 55.23132813 71.16917969 54.50171875 71.9375 53.75 C73.0502832 52.63238281 73.0502832 52.63238281 74.18554688 51.4921875 C79.73305861 46 79.73305861 46 82 46 C82 45.34 82 44.68 82 44 C86.08206691 44.69902485 87.47635842 46.48858897 89.90820312 49.81225586 C90.37162109 50.47233643 90.83503906 51.13241699 91.3125 51.8125 C92.03663086 52.82485718 92.03663086 52.82485718 92.77539062 53.85766602 C98.60549394 62.1153574 103.6912914 70.40474506 107 80 C107.69996094 81.24910156 107.69996094 81.24910156 108.4140625 82.5234375 C110.58988348 87.29309432 111.55835868 92.1340722 112.625 97.25 C112.8415625 98.23613281 113.058125 99.22226562 113.28125 100.23828125 C115.31478075 109.76574938 116.19707851 119.07881391 116.1875 128.8125 C116.1862915 130.11018311 116.1862915 130.11018311 116.18505859 131.43408203 C116.11068491 139.27248447 115.65357371 147.12707924 113.1171875 154.6015625 C112.12589944 157.61701917 111.4068878 160.55749925 110.703125 163.6484375 C109.1255573 170.05162269 106.65302308 175.72298613 103.75 181.625 C103.29753906 182.5840625 102.84507812 183.543125 102.37890625 184.53125 C99.17065704 191.16342904 95.39726942 197.09609644 91 203 C89.96939453 204.3921875 89.96939453 204.3921875 88.91796875 205.8125 C72.0065257 227.19039641 50.77172906 240.84301741 25 249 C23.33255827 249.58111412 21.66571934 250.16396703 20 250.75 C-3.11225472 258.26258758 -32.25329243 257.28260302 -55 249 C-55.87011719 248.690625 -56.74023438 248.38125 -57.63671875 248.0625 C-64.09007394 245.63109459 -70.0230231 242.41910638 -76 239 C-76.81210938 238.56042969 -77.62421875 238.12085938 -78.4609375 237.66796875 C-110.58366684 219.63142007 -128.72081519 187.49343416 -139.10546875 153.3671875 C-146.79102887 124.43726252 -139.42475221 89.54710079 -124.76123047 64.1184082 C-113.5955295 45.41258994 -98.07733671 27.93457104 -79 17 C-77.68 17 -76.36 17 -75 17 C-75 16.34 -75 15.68 -75 15 C-55.57017005 6.08936992 -55.57017005 6.08936992 -47 4 C-45.81792969 3.65066406 -44.63585937 3.30132812 -43.41796875 2.94140625 C-29.12847091 -1.00427752 -14.69440832 -0.39249498 0 0 Z " fill="#55A77A" transform="translate(294,349)"/>
<path d="M0 0 C5.31517104 -0.09663947 10.62128993 -0.06196686 15.93603516 0.04150391 C17.11939453 0.05826172 18.30275391 0.07501953 19.52197266 0.09228516 C36.28594026 0.80262277 52.7951564 10.07987001 65.93603516 20.04150391 C65.36940201 23.79702248 63.84845715 25.47176862 61.15478516 28.08056641 C60.39552734 28.82564453 59.63626953 29.57072266 58.85400391 30.33837891 C58.05607422 31.10666016 57.25814453 31.87494141 56.43603516 32.66650391 C54.86105009 34.19823413 53.28803085 35.73198912 51.71728516 37.26806641 C51.01667969 37.94434082 50.31607422 38.62061523 49.59423828 39.31738281 C47.85599485 40.95351585 47.85599485 40.95351585 46.93603516 43.04150391 C43.84829046 42.42395497 41.67870838 41.40110664 39.06103516 39.66650391 C25.84905432 31.24568095 10.7806503 28.59900758 -4.57958984 31.92041016 C-13.16656282 34.07797415 -20.3292512 37.14554581 -27.06396484 43.04150391 C-27.76779297 43.63705078 -28.47162109 44.23259766 -29.19677734 44.84619141 C-39.53008249 54.31511361 -44.249115 66.09015018 -45.37646484 79.85791016 C-45.88304658 96.05269518 -42.02189447 109.19527091 -32.06396484 122.04150391 C-21.22261619 133.50283695 -9.0648742 139.61660069 6.89892578 140.10107422 C16.40091834 140.15005356 24.20782448 138.76616299 32.98291016 135.00244141 C36.23938417 133.9427951 37.70029941 134.111633 40.93603516 135.04150391 C46.19189982 135.70618402 46.19189982 135.70618402 50.93603516 133.84228516 C54.0653505 131.25408059 56.52141907 128.91601889 57.93603516 125.04150391 C57.94993049 123.04057583 57.87822726 121.03827285 57.74853516 119.04150391 C57.62095762 112.74767875 59.03066926 108.32670724 61.74462891 102.69775391 C66.70779683 91.63233034 64.59015988 76.60341394 61.22509766 65.34619141 C59.42838995 60.7400862 57.04787653 56.86906879 53.93603516 53.04150391 C55.27103635 50.06871774 56.7312514 48.00680539 59.05322266 45.72900391 C59.66037109 45.12830078 60.26751953 44.52759766 60.89306641 43.90869141 C61.52599609 43.29251953 62.15892578 42.67634766 62.81103516 42.04150391 C63.43623047 41.42533203 64.06142578 40.80916016 64.70556641 40.17431641 C65.91166396 38.98606808 67.12092193 37.80101671 68.33374023 36.61962891 C69.66623848 35.30723081 70.96405996 33.9597375 72.25244141 32.60400391 C73.93603516 31.04150391 73.93603516 31.04150391 75.99853516 31.04150391 C78.45184706 32.30772941 79.51419983 33.69547562 80.93603516 36.04150391 C80.93603516 36.70150391 80.93603516 37.36150391 80.93603516 38.04150391 C81.59603516 38.04150391 82.25603516 38.04150391 82.93603516 38.04150391 C94.10471866 59.42382909 99.9319522 83.82386344 93.24853516 107.91650391 C92.5227411 109.97461221 91.75390188 112.01821924 90.93603516 114.04150391 C90.56220703 115.06888672 90.18837891 116.09626953 89.80322266 117.15478516 C83.57063519 133.39666043 72.33303903 146.18287971 58.93603516 157.04150391 C57.80294922 157.96576172 57.80294922 157.96576172 56.64697266 158.90869141 C47.58587228 165.7856829 37.11597681 169.0517314 25.94775391 170.68212891 C23.94484272 170.84211717 23.94484272 170.84211717 22.93603516 172.04150391 C-0.6271789 173.91139556 -22.68824649 170.84966097 -41.62646484 155.91650391 C-43.11429888 154.63483051 -44.59442508 153.34411271 -46.06396484 152.04150391 C-46.68400391 151.55166016 -47.30404297 151.06181641 -47.94287109 150.55712891 C-53.1569553 146.40452493 -57.08752043 141.35969337 -61.06396484 136.04150391 C-61.87027344 134.99349609 -61.87027344 134.99349609 -62.69287109 133.92431641 C-67.53000921 127.23062658 -70.18303091 119.71242437 -73.06396484 112.04150391 C-73.40943359 111.27322266 -73.75490234 110.50494141 -74.11083984 109.71337891 C-77.09338857 101.35246362 -77.40220118 92.96832976 -77.37646484 84.16650391 C-77.39257812 83.07208984 -77.40869141 81.97767578 -77.42529297 80.85009766 C-77.43201839 69.48414354 -74.68689588 59.36826712 -70.06396484 49.04150391 C-69.52642578 47.82527344 -69.52642578 47.82527344 -68.97802734 46.58447266 C-62.59150238 32.97560236 -52.90221547 22.36723548 -40.87646484 13.54150391 C-40.29429199 13.10765381 -39.71211914 12.67380371 -39.11230469 12.22680664 C-35.45922408 9.63743243 -32.52661407 8.42072751 -28.06396484 8.04150391 C-28.06396484 7.38150391 -28.06396484 6.72150391 -28.06396484 6.04150391 C-18.45703771 2.19020619 -10.39825718 0.20909673 0 0 Z " fill="#55A77A" transform="translate(272.06396484375,390.95849609375)"/>
<path d="M0 0 C43.23 0 86.46 0 131 0 C131 4.95 131 9.9 131 15 C126.8125 18.1875 126.8125 18.1875 124.05859375 19.43359375 C108.49801137 27.40267873 95.08061589 46.44009869 89.82421875 62.58984375 C89 65 89 65 87.96484375 66.92578125 C86.69481823 69.65607904 86.32715742 72.27867984 85.875 75.25 C85.70742188 76.32765625 85.53984375 77.4053125 85.3671875 78.515625 C85.18542969 79.74539063 85.18542969 79.74539063 85 81 C84.34 81 83.68 81 83 81 C82.93941406 81.61746094 82.87882812 82.23492188 82.81640625 82.87109375 C82.63989012 84.65526452 82.45995203 86.43909871 82.27734375 88.22265625 C82.11025991 89.89584796 81.95339483 91.57016963 81.81640625 93.24609375 C81.3238837 98.72415074 80.12465976 103.88878609 78.71875 109.203125 C78.05366904 111.79115745 77.49810761 114.37535605 77 117 C76.34 117 75.68 117 75 117 C74.97421875 117.59167969 74.9484375 118.18335938 74.921875 118.79296875 C74.64187889 122.69382365 74.23272206 125.54386476 72.4375 129.0625 C69.64583967 131.28151206 67.59307627 131.85192615 64.01513672 131.60351562 C60.12361466 130.43803919 58.06297613 127.35847377 56 124 C54.83083515 120.63352772 54.26893051 117.26901721 53.75 113.75 C53.59289551 112.81849121 53.43579102 111.88698242 53.27392578 110.92724609 C52.83065383 108.28744859 52.41409616 105.64449643 52 103 C51.63243417 100.87370149 51.25944364 98.74831182 50.875 96.625 C50.68550781 95.49964844 50.68550781 95.49964844 50.4921875 94.3515625 C50.10199869 92.48732705 49.6060505 90.64527916 49.07421875 88.81640625 C47.8167792 84.34906647 46.86624572 79.85735075 45.9375 75.3125 C45.59311594 73.64178924 45.248087 71.97121126 44.90234375 70.30078125 C44.75273193 69.57028564 44.60312012 68.83979004 44.44897461 68.0871582 C44.30081299 67.398396 44.15265137 66.70963379 44 66 C43.81739624 64.90788208 43.81739624 64.90788208 43.63110352 63.79370117 C43.42283936 63.20177979 43.2145752 62.6098584 43 62 C42.01 61.67 41.02 61.34 40 61 C39.649375 59.783125 39.29875 58.56625 38.9375 57.3125 C37.48629149 52.47772513 35.04512967 48.80067431 32.125 44.75 C31.70210693 44.16001221 31.27921387 43.57002441 30.84350586 42.9621582 C28.16057423 39.32129394 25.264981 36.14502164 22 33 C21.29359375 32.25878906 20.5871875 31.51757812 19.859375 30.75390625 C15.56391781 26.2914035 11.30474513 22.56689041 6.04296875 19.2890625 C3.95393864 17.97093643 1.97609768 16.48207326 0 15 C0 10.05 0 5.1 0 0 Z " fill="#0C0F10" transform="translate(215,625)"/>
<path d="M0 0 C49.48148148 0 49.48148148 0 58.75 5.6875 C65.72096444 12.85210234 67.27131002 20.45987976 67.24438477 30.14477539 C67.07489999 39.32464697 65.16408433 45.68729547 58.77734375 52.37109375 C56.1235874 54.8032177 53.70964357 57 50 57 C55.24664764 66.241557 60.54711296 75.43593917 66.1484375 84.46875 C66.70144531 85.36194946 66.70144531 85.36194946 67.265625 86.27319336 C68.32823067 87.98706592 69.39450068 89.69866495 70.4609375 91.41015625 C72 94 72 94 72 95 C65.73 95 59.46 95 53 95 C50 89 50 89 50 87 C49.34 87 48.68 87 48 87 C46.4933028 84.2118978 44.99580196 81.41896042 43.5 78.625 C43.07074219 77.8309375 42.64148438 77.036875 42.19921875 76.21875 C41.79316406 75.45820312 41.38710938 74.69765625 40.96875 73.9140625 C40.59169922 73.2123291 40.21464844 72.5105957 39.82617188 71.78759766 C39 70 39 70 39 68 C38.34 68 37.68 68 37 68 C35.68 65.36 34.36 62.72 33 60 C27.06 59.67 21.12 59.34 15 59 C15 70.88 15 82.76 15 95 C9.72 95 4.44 95 -1 95 C-0.67 63.65 -0.34 32.3 0 0 Z " fill="#0B0E0F" transform="translate(457,546)"/>
<path d="M0 0 C-1.54842967 3.46935892 -3.35940997 5.21430787 -6.34765625 7.57421875 C-8.7089981 9.61178323 -10.63000395 11.9461756 -12.60546875 14.3515625 C-13.06566406 14.89554687 -13.52585937 15.43953125 -14 16 C-14.40476562 16.56847656 -14.80953125 17.13695312 -15.2265625 17.72265625 C-18.07938206 19.77744038 -20.76007543 19.04970391 -24.1875 18.8125 C-30.26987589 18.569351 -34.03729915 19.3249051 -38.6796875 23.39453125 C-42.20400429 27.68001705 -41.40385078 33.77985475 -41 39 C-39.71997184 42.91119716 -38.44239692 44.58997359 -35.4375 47.375 C-30.81909653 49.55824528 -27.0237038 49.79364702 -22 49 C-17.62753245 46.97570947 -14.9441209 44.39180064 -12.64453125 40.11328125 C-11.83682368 37.46497946 -12.07778009 35.3762252 -12.3125 32.625 C-12.45394842 29.06440182 -12.34545578 27.4980255 -10.29296875 24.5390625 C-7.95910825 22.20917792 -5.55036614 20.08988336 -3 18 C-1.49752071 16.69033889 0.00269166 15.37806983 1.5 14.0625 C2.1496875 13.51722656 2.799375 12.97195313 3.46875 12.41015625 C5.11898278 11.05785369 5.11898278 11.05785369 6 9 C6.99 9 7.98 9 9 9 C9.98163422 10.93625098 10.96022454 12.87404539 11.9375 14.8125 C12.48277344 15.89144531 13.02804687 16.97039062 13.58984375 18.08203125 C17.74661865 26.68344635 17.28601077 38.58640006 15.10546875 47.765625 C14.18225858 50.25796623 13.21393981 52.63715287 12 55 C10.824375 55.04125 9.64875 55.0825 8.4375 55.125 C4.18510294 55.69801804 1.58339121 57.08840676 -1.55859375 59.984375 C-3.34648333 62.48451328 -3.76902483 64.62321569 -4.375 67.625 C-5.4439486 72.57308914 -5.4439486 72.57308914 -8.03515625 74.5625 C-10.34756811 75.58522525 -12.55451382 76.36425836 -15 77 C-15.90878906 77.26151855 -15.90878906 77.26151855 -16.8359375 77.52832031 C-19.24145576 78.05262777 -21.41755471 78.12950645 -23.87890625 78.1328125 C-24.79994141 78.13410156 -25.72097656 78.13539063 -26.66992188 78.13671875 C-27.62447266 78.13285156 -28.57902344 78.12898437 -29.5625 78.125 C-30.52091797 78.12886719 -31.47933594 78.13273438 -32.46679688 78.13671875 C-33.38654297 78.13542969 -34.30628906 78.13414062 -35.25390625 78.1328125 C-36.09252197 78.13168457 -36.9311377 78.13055664 -37.79516602 78.12939453 C-40 78 -40 78 -43 77 C-43 76.34 -43 75.68 -43 75 C-43.804375 74.979375 -44.60875 74.95875 -45.4375 74.9375 C-53.8571042 72.72181468 -61.11376585 64.98665154 -66 58 C-71.81796405 45.7587346 -73.37966179 30.51065193 -69.4375 17.4375 C-65.00728503 6.19874414 -56.74020684 -0.85827755 -46.15234375 -6.140625 C-29.74148481 -12.69305507 -14.62461726 -8.81088052 0 0 Z " fill="#55A77A" transform="translate(309,442)"/>
<path d="M0 0 C5.28 0 10.56 0 16 0 C15.67 31.35 15.34 62.7 15 95 C10.38 95 5.76 95 1 95 C0.505 91.535 0.505 91.535 0 88 C-0.81404297 88.63228516 -0.81404297 88.63228516 -1.64453125 89.27734375 C-2.35996094 89.82519531 -3.07539062 90.37304688 -3.8125 90.9375 C-4.52019531 91.48277344 -5.22789062 92.02804687 -5.95703125 92.58984375 C-10.23703251 95.54410848 -14.68812172 95.21766772 -19.6875 95.25 C-20.46544922 95.270625 -21.24339844 95.29125 -22.04492188 95.3125 C-30.00980629 95.36564352 -36.40970267 93.27197968 -42.33203125 87.796875 C-51.30851011 78.12666359 -52.61135551 68.09043831 -52.30078125 55.41796875 C-51.7351448 44.43810396 -46.91521103 37.39302697 -39 30 C-33.52908911 25.54309415 -28.6701538 24.79731729 -21.75 24.75 C-21.01136719 24.729375 -20.27273438 24.70875 -19.51171875 24.6875 C-11.04915676 24.62779939 -6.58665972 27.5111169 0 33 C0 22.11 0 11.22 0 0 Z " fill="#0B0D0E" transform="translate(656,546)"/>
<path d="M0 0 C1.9716012 1.90201527 3.41126816 3.74502578 5 6 C5.35191406 5.52949219 5.70382812 5.05898438 6.06640625 4.57421875 C6.56011719 3.95160156 7.05382812 3.32898438 7.5625 2.6875 C8.27599609 1.76517578 8.27599609 1.76517578 9.00390625 0.82421875 C14.06826851 -3.80407318 19.72860096 -4.55881805 26.3125 -4.5 C27.05653076 -4.49427979 27.80056152 -4.48855957 28.56713867 -4.48266602 C34.84540732 -4.27992101 40.04873409 -3.09372707 45 1 C47.60530184 4.1249946 49 6.8422436 49 11 C49.66 11 50.32 11 51 11 C51.91463407 14.1155829 52.12154961 16.89395628 52.11352539 20.13574219 C52.11341209 21.66687653 52.11341209 21.66687653 52.11329651 23.22894287 C52.10813522 24.32386047 52.10297394 25.41877808 52.09765625 26.546875 C52.0962413 27.6732135 52.09482635 28.799552 52.09336853 29.96002197 C52.08777199 33.55670835 52.0752201 37.15333244 52.0625 40.75 C52.05748455 43.18880118 52.05292172 45.62760334 52.04882812 48.06640625 C52.03780369 54.04429483 52.0205414 60.02213685 52 66 C46.72 66 41.44 66 36 66 C36.01571045 64.61288818 36.0314209 63.22577637 36.04760742 61.79663086 C36.10205648 56.63246506 36.13640471 51.46832447 36.16479492 46.30395508 C36.17984741 44.07214078 36.20029398 41.8403559 36.22631836 39.60864258 C36.26285688 36.39396896 36.27976215 33.17968772 36.29296875 29.96484375 C36.30845261 28.97290512 36.32393646 27.98096649 36.33988953 26.95896912 C36.34128009 21.18760771 35.80235999 17.08668335 33 12 C28.96250977 8.96769406 23.81768949 9.3768919 19 10 C15.76546043 11.61726978 13.79987187 12.89541503 11.6875 15.8125 C9.77154997 21.90870464 9.80650716 28.32228454 9.68359375 34.65234375 C9.66281265 35.55247696 9.64203156 36.45261017 9.62062073 37.38002014 C9.55566163 40.23244187 9.49649172 43.08494925 9.4375 45.9375 C9.39426367 47.88086794 9.35064781 49.82422748 9.30664062 51.76757812 C9.20003585 56.51163279 9.09862005 61.25577291 9 66 C4.05 66 -0.9 66 -6 66 C-6.01458252 64.5773584 -6.02916504 63.1547168 -6.04418945 61.68896484 C-6.10225816 56.3996495 -6.17949126 51.11075603 -6.26245117 45.82177734 C-6.29566006 43.53473774 -6.32370451 41.24761697 -6.34643555 38.96044922 C-6.3800551 35.66859422 -6.43237624 32.37748028 -6.48828125 29.0859375 C-6.49467117 28.06696381 -6.5010611 27.04799011 -6.50764465 25.99813843 C-6.61851375 20.61803977 -6.9120923 16.61608529 -10 12 C-14.15179349 9.31354539 -19.20607967 9.42472956 -24 10 C-27.2618488 11.48910489 -29.67702367 13.28113527 -32 16 C-32.56624843 17.93530687 -32.56624843 17.93530687 -32.66772461 20.07202148 C-32.76426834 21.26962601 -32.76426834 21.26962601 -32.86276245 22.49142456 C-33.0880973 26.6103371 -33.23535173 30.72340005 -33.31640625 34.84765625 C-33.33718735 35.74495956 -33.35796844 36.64226288 -33.37937927 37.5667572 C-33.44412226 40.39860288 -33.50340518 43.23053141 -33.5625 46.0625 C-33.60575702 47.99675294 -33.64937344 49.93099788 -33.69335938 51.86523438 C-33.79972503 56.57674067 -33.90119819 61.28832926 -34 66 C-39.28 66 -44.56 66 -50 66 C-49.67 43.23 -49.34 20.46 -49 -3 C-44.38 -3 -39.76 -3 -35 -3 C-35 -1.02 -35 0.96 -35 3 C-34.39671875 2.57847656 -33.7934375 2.15695312 -33.171875 1.72265625 C-32.37265625 1.17480469 -31.5734375 0.62695312 -30.75 0.0625 C-29.96109375 -0.48277344 -29.1721875 -1.02804687 -28.359375 -1.58984375 C-20.13558895 -6.50505363 -7.75379889 -5.31965412 0 0 Z " fill="#0C0E0F" transform="translate(819,455)"/>
<path d="M0 0 C0.86334961 -0.00128906 1.72669922 -0.00257813 2.61621094 -0.00390625 C7.3680383 0.07697592 11.28927391 0.55280797 15.75 2.375 C15.75 3.035 15.75 3.695 15.75 4.375 C16.4925 4.58125 17.235 4.7875 18 5 C22.48523346 7.24261673 24.15131584 10.7414552 25.83740234 15.34204102 C27.24810425 20.54378022 27.10676194 25.86023842 27.1640625 31.21484375 C27.18342865 32.33693741 27.2027948 33.45903107 27.2227478 34.61512756 C27.28228016 38.1808423 27.32882378 41.74658978 27.375 45.3125 C27.41320399 47.73764388 27.45225712 50.16277455 27.4921875 52.58789062 C27.58796017 58.51681908 27.67208854 64.44581102 27.75 70.375 C22.8 70.375 17.85 70.375 12.75 70.375 C12.42 68.395 12.09 66.415 11.75 64.375 C10.4815625 65.550625 10.4815625 65.550625 9.1875 66.75 C2.13108694 72.50268778 -6.51055114 72.1577851 -15.25 71.375 C-21.86331686 69.77438563 -26.68163748 66.18633324 -30.25 60.375 C-32.20303042 54.63499597 -32.01298656 47.85470633 -30.25 42.125 C-23.3364505 32.61886944 -15.54126626 29.96366454 -4.3125 28.1875 C1.40929379 27.43577682 6.98605957 27.13594256 12.75 27.375 C11.98330625 21.27328347 11.98330625 21.27328347 8.625 16.4375 C8.00625 16.086875 7.3875 15.73625 6.75 15.375 C6.75 14.715 6.75 14.055 6.75 13.375 C-4.01629931 12.64249662 -4.01629931 12.64249662 -13.25 17.375 C-14.74113354 19.9658295 -14.74113354 19.9658295 -15.25 22.375 C-24.66002278 22.55951025 -24.66002278 22.55951025 -29.25 21.375 C-28.81604691 15.95058638 -27.70068767 12.61441629 -24.25 8.375 C-22 7 -22 7 -20.25 6.375 C-20.25 5.715 -20.25 5.055 -20.25 4.375 C-13.70175471 0.51498172 -7.42582774 -0.01079728 0 0 Z " fill="#0A0D0E" transform="translate(715.25,570.625)"/>
<path d="M0 0 C0.92425781 -0.01611328 1.84851563 -0.03222656 2.80078125 -0.04882812 C10.30880178 -0.05419867 15.39332504 1.74199557 21.1239624 6.83117676 C27.05669269 13.21784183 27.10041705 20.59532495 27.109375 28.90625 C27.12591125 30.09351685 27.14244751 31.28078369 27.15948486 32.50402832 C27.20783463 36.2735722 27.22930804 40.04271298 27.25 43.8125 C27.27817039 46.3776243 27.3080993 48.94272994 27.33984375 51.5078125 C27.41359088 57.77600848 27.46324565 64.04398237 27.5 70.3125 C22.88 70.3125 18.26 70.3125 13.5 70.3125 C13.5 68.0025 13.5 65.6925 13.5 63.3125 C12.99210938 63.72242188 12.48421875 64.13234375 11.9609375 64.5546875 C11.27257812 65.09351563 10.58421875 65.63234375 9.875 66.1875 C9.20210937 66.72117187 8.52921875 67.25484375 7.8359375 67.8046875 C0.71663836 72.40008795 -7.32696855 72.00935847 -15.5 71.3125 C-21.2546198 69.84610239 -25.35519261 67.50826873 -28.5 62.3125 C-28.5 61.6525 -28.5 60.9925 -28.5 60.3125 C-29.16 60.3125 -29.82 60.3125 -30.5 60.3125 C-31.57427471 57.08967587 -31.6332963 54.69738847 -31.625 51.3125 C-31.62757813 50.260625 -31.63015625 49.20875 -31.6328125 48.125 C-31.5 45.3125 -31.5 45.3125 -30.5 42.3125 C-29.84 42.3125 -29.18 42.3125 -28.5 42.3125 C-28.231875 41.508125 -27.96375 40.70375 -27.6875 39.875 C-27.0996875 38.6065625 -27.0996875 38.6065625 -26.5 37.3125 C-25.015 36.8175 -25.015 36.8175 -23.5 36.3125 C-23.17 35.3225 -22.84 34.3325 -22.5 33.3125 C-12.14112 27.66037324 0.92953025 26.83261877 12.5 27.3125 C12.23785126 21.33586534 12.23785126 21.33586534 9.125 16.375 C4.56838873 12.79480543 0.08285742 12.76207744 -5.5 13.3125 C-9.23698169 14.93727465 -11.34763317 16.86871307 -13.5 20.3125 C-13.83 21.3025 -14.16 22.2925 -14.5 23.3125 C-19.12 22.6525 -23.74 21.9925 -28.5 21.3125 C-27.28248539 12.78989773 -24.68679675 9.08379951 -18.4765625 3.609375 C-12.70025396 -0.180614 -6.66168776 -0.02322764 0 0 Z " fill="#0B0E0F" transform="translate(565.5,570.6875)"/>
<path d="M0 0 C6.96779432 5.8839152 12.89314942 16.18149416 13.8125 25.375 C13.8125 28.345 13.8125 31.315 13.8125 34.375 C-2.6875 34.375 -19.1875 34.375 -36.1875 34.375 C-33.25914771 43.92395439 -33.25914771 43.92395439 -26.42578125 50.51171875 C-21.31143025 52.48426948 -14.25911523 52.49510029 -9.109375 50.6171875 C-6.18668765 48.7425345 -4.05250602 46.27612047 -2.1875 43.375 C1.28191546 43.83322468 4.48645049 44.26631683 7.8125 45.375 C7.8125 46.035 7.8125 46.695 7.8125 47.375 C8.8025 47.375 9.7925 47.375 10.8125 47.375 C10.5441986 51.2206534 10.10653715 53.03195666 7.5625 56 C6.655 56.78375 5.7475 57.5675 4.8125 58.375 C3.9875 59.096875 3.1625 59.81875 2.3125 60.5625 C-1.16997087 63.08729138 -3.86826823 64.375 -8.1875 64.375 C-8.1875 65.035 -8.1875 65.695 -8.1875 66.375 C-19.88498668 66.90336828 -30.0103922 66.88386823 -39.5625 59.125 C-47.86315719 51.09593896 -51.1230819 41.41469387 -51.625 29.9375 C-51.22725159 17.97046088 -46.66671803 8.85421803 -38.375 0.5625 C-26.64589546 -7.48688547 -12.23574687 -6.23783174 0 0 Z " fill="#0E1011" transform="translate(569.1875,455.625)"/>
<path d="M0 0 C7.79292851 6.19892041 12.53489407 15.23262713 14 25 C14 27.97 14 30.94 14 34 C-2.5 34 -19 34 -36 34 C-34.78634969 41.54556657 -34.78634969 41.54556657 -31.1875 46.9375 C-30.70667969 47.48277344 -30.22585938 48.02804687 -29.73046875 48.58984375 C-24.51118507 52.84302978 -18.39636844 52.59260472 -12 52 C-6.74493445 50.28016037 -4.73510849 47.73384162 -2 43 C3.06998019 43.65419099 7.41990777 45.8546409 12 48 C10.19401191 55.05977164 5.76005308 58.82396152 0 63 C-3.4320583 64.67417478 -5.07903833 65 -9 65 C-9 65.66 -9 66.32 -9 67 C-19.72294664 67.46028547 -30.41245191 67.22134725 -39 60 C-47.40881486 52.18387694 -50.47298504 42.64171692 -51.25 31.375 C-51.10803183 22.11157707 -48.32041197 11.80721895 -42.05859375 4.83984375 C-31.05013658 -5.70912999 -13.36539844 -8.0457052 0 0 Z " fill="#0B0D0E" transform="translate(933,455)"/>
<path d="M0 0 C3.85941373 3.12037706 6.45043356 6.7507226 9 11 C9 11.66 9 12.32 9 13 C9.66 13 10.32 13 11 13 C11.52112032 14.42997897 12.01534507 15.86975406 12.5 17.3125 C12.7784375 18.11300781 13.056875 18.91351563 13.34375 19.73828125 C14 23 14 23 14 34 C-2.5 34 -19 34 -36 34 C-33.45908126 44.74442802 -33.45908126 44.74442802 -26 51 C-20.36316637 52.87894454 -14.24162826 52.74720942 -8.625 50.875 C-5.40366636 48.5740474 -3.38332549 46.15440138 -1 43 C0.41791408 43.45445964 1.83428046 43.91374944 3.25 44.375 C4.03890625 44.63023437 4.8278125 44.88546875 5.640625 45.1484375 C7.86627958 45.95173667 9.90931672 46.89711662 12 48 C10.73560483 54.32197583 6.94773054 58.15813638 2 62 C-1.24127133 63.6934187 -4.50161203 64.94691382 -8 66 C-8.62390625 66.18820312 -9.2478125 66.37640625 -9.890625 66.5703125 C-19.02004086 68.43000832 -27.22343757 67.50232496 -35.3046875 62.890625 C-43.12159944 57.40745778 -48.26953347 50.46348886 -50 41 C-51.2735643 27.8009843 -50.95528483 15.68706023 -42.25 5.0625 C-31.3696087 -6.2636429 -13.59531107 -7.17140979 0 0 Z " fill="#0B0E0F" transform="translate(642,455)"/>
<path d="M0 0 C23.43 0 46.86 0 71 0 C71 4.62 71 9.24 71 14 C61.76 14 52.52 14 43 14 C43 41.06 43 68.12 43 96 C37.72 96 32.44 96 27 96 C27.33 69.27 27.66 42.54 28 15 C18.76 15 9.52 15 0 15 C0 10.05 0 5.1 0 0 Z " fill="#0D0F10" transform="translate(659,425)"/>
<path d="M0 0 C23.43 0 46.86 0 71 0 C71 4.62 71 9.24 71 14 C61.76 14 52.52 14 43 14 C43 40.73 43 67.46 43 95 C37.72 95 32.44 95 27 95 C27.33 68.27 27.66 41.54 28 14 C18.76 14 9.52 14 0 14 C0 9.38 0 4.76 0 0 Z " fill="#0D0F10" transform="translate(451,426)"/>
<path d="M0 0 C1.07507813 -0.00257813 2.15015625 -0.00515625 3.2578125 -0.0078125 C5.875 0.125 5.875 0.125 6.875 1.125 C6.94819621 3.82154854 6.96742537 6.49191458 6.9375 9.1875 C6.93298828 9.94611328 6.92847656 10.70472656 6.92382812 11.48632812 C6.9120068 13.36591871 6.89407078 15.24546899 6.875 17.125 C6.153125 16.96515625 5.43125 16.8053125 4.6875 16.640625 C-0.61219505 15.66901424 -5.96007434 15.23079157 -11 17.3125 C-15.84060135 21.44124821 -18.77151911 25.7657375 -19.29669189 32.24237061 C-19.35571877 34.72403734 -19.34990463 37.19749963 -19.3203125 39.6796875 C-19.3174826 40.58123566 -19.31465271 41.48278381 -19.31173706 42.41165161 C-19.30059439 45.27457276 -19.2755008 48.13717434 -19.25 51 C-19.23996255 52.94791213 -19.23083804 54.89582919 -19.22265625 56.84375 C-19.20067443 61.6042887 -19.1661855 66.36459027 -19.125 71.125 C-24.405 71.125 -29.685 71.125 -35.125 71.125 C-35.125 48.025 -35.125 24.925 -35.125 1.125 C-30.175 1.125 -25.225 1.125 -20.125 1.125 C-20.125 3.765 -20.125 6.405 -20.125 9.125 C-19.465 9.125 -18.805 9.125 -18.125 9.125 C-18.125 8.465 -18.125 7.805 -18.125 7.125 C-16.26171875 5.65234375 -16.26171875 5.65234375 -13.8125 4.0625 C-12.61173828 3.27166016 -12.61173828 3.27166016 -11.38671875 2.46484375 C-7.50153839 0.16326022 -4.43565613 -0.01068833 0 0 Z " fill="#0C0E0F" transform="translate(792.125,569.875)"/>
<path d="M0 0 C4.62585085 2.04821914 7.13014954 4.73618686 9.45703125 9.296875 C11.63254083 17.88210742 11.67517988 27.42299755 7.45703125 35.296875 C5.56104143 37.35971192 3.805352 38.69801832 1.45703125 40.296875 C0.79703125 40.296875 0.13703125 40.296875 -0.54296875 40.296875 C-0.54296875 40.956875 -0.54296875 41.616875 -0.54296875 42.296875 C-6.12820607 44.15862077 -11.49473109 44.0607984 -16.79296875 41.609375 C-20.23492145 39.69643064 -22.3564363 37.61716502 -24.54296875 34.296875 C-25.32414063 33.23919922 -25.32414063 33.23919922 -26.12109375 32.16015625 C-27.98358904 28.40958195 -28.01984587 25.01709516 -27.98046875 20.921875 C-28.00044922 20.19226563 -28.02042969 19.46265625 -28.04101562 18.7109375 C-28.03520951 12.20809311 -25.88254766 8.56333627 -22.11328125 3.30078125 C-16.1718859 -2.62455627 -7.70410855 -2.13016826 0 0 Z " fill="#EEECE9" transform="translate(646.54296875,585.703125)"/>
<path d="M0 0 C6.249375 -0.0928125 6.249375 -0.0928125 12.625 -0.1875 C13.92775879 -0.21481201 15.23051758 -0.24212402 16.57275391 -0.27026367 C27.30078142 -0.3474975 27.30078142 -0.3474975 32 3 C36.18495447 7.52427511 37.26145258 10.82979364 37.1484375 17.01171875 C36.8357827 21.1996475 35.41989515 23.49845857 32.75 26.6875 C26.45008122 31.98515898 19.4408609 31.24375653 11.625 31.125 C5.870625 31.063125 5.870625 31.063125 0 31 C0 20.77 0 10.54 0 0 Z " fill="#ECEAE7" transform="translate(472,560)"/>
<path d="M0 0 C5.28 0 10.56 0 16 0 C15.67 22.77 15.34 45.54 15 69 C10.05 69 5.1 69 0 69 C0 46.23 0 23.46 0 0 Z " fill="#0A0D0E" transform="translate(739,452)"/>
<path d="M0 0 C0.08271086 5.76612849 -0.40996023 9.97360874 -4.1875 14.5 C-8.34249426 18.69730581 -11.71240028 19.79933336 -17.5625 20.3125 C-22.20677329 19.89029334 -24.52500499 18.37666201 -27.875 15.25 C-29.59594712 11.80810577 -29.03958743 9.638556 -28 6 C-21.54036592 -1.70988584 -9.06486516 -0.25574855 0 0 Z " fill="#F1EFEC" transform="translate(728,610)"/>
<path d="M0 0 C0 2.97 0 5.94 0 9 C-0.66 9 -1.32 9 -2 9 C-2.09667969 9.59425781 -2.19335938 10.18851563 -2.29296875 10.80078125 C-3.14685266 13.45678478 -4.18480122 14.41517703 -6.3125 16.1875 C-6.90675781 16.69667969 -7.50101563 17.20585938 -8.11328125 17.73046875 C-12.07864702 20.39867553 -16.32751966 20.40280003 -21 20 C-26.53846154 16.92307692 -26.53846154 16.92307692 -28 14 C-28.48103591 9.75084949 -28.51276666 7.72107812 -26 4.1875 C-18.33959387 -1.39821281 -9.03821709 -0.21183321 0 0 Z " fill="#EDECE9" transform="translate(578,610)"/>
<path d="M0 0 C3.4015843 2.37319835 5.34432396 4.42915289 7.6875 7.875 C7.6875 9.525 7.6875 11.175 7.6875 12.875 C-3.2025 12.875 -14.0925 12.875 -25.3125 12.875 C-24.16666525 7.14582627 -22.43165343 4.79223415 -18.3125 0.875 C-13.03337848 -2.49777208 -5.73231104 -1.94682262 0 0 Z " fill="#EEEDEB" transform="translate(923.3125,465.125)"/>
<path d="M0 0 C3.91256957 3.80960721 4.0448413 5.2690478 5 11 C-5.89 11 -16.78 11 -28 11 C-26.86886421 4.21318524 -26.86886421 4.21318524 -23.1875 1.1875 C-22.50042969 0.60355469 -21.81335938 0.01960938 -21.10546875 -0.58203125 C-14.59899466 -4.96394237 -6.49524823 -3.62234997 0 0 Z " fill="#EFEEEC" transform="translate(635,467)"/>
<path d="M0 0 C4.14645758 2.5516662 6.30731183 5.55956991 8.25 10 C8.25 10.99 8.25 11.98 8.25 13 C-2.64 13 -13.53 13 -24.75 13 C-23.62116131 6.22696788 -23.62116131 6.22696788 -19.875 3.1875 C-19.17632813 2.60355469 -18.47765625 2.01960938 -17.7578125 1.41796875 C-12.44175594 -2.33636691 -5.99228146 -1.59794172 0 0 Z " fill="#F0EEEB" transform="translate(558.75,465)"/>
<path d="M0 0 C3.4375 1.9375 3.4375 1.9375 6 5 C6.86123442 8.19639351 6.86678794 10.8044418 6 14 C4.21898526 16.62305913 2.87942274 17.34699806 0 19 C-4.00116517 19.73490789 -5.41778974 19.38814018 -8.8125 17.125 C-11.66056696 14.35830638 -11.96467578 13.63583596 -12.1875 9.625 C-12.01513501 6.29261022 -11.88103846 4.67305465 -10 2 C-6.23124125 -0.51250583 -4.46849866 -0.53016086 0 0 Z " fill="#090B0C" transform="translate(750,422)"/>
<path d="M0 0 C0.66 1.32 1.32 2.64 2 4 C-7.24 4 -16.48 4 -26 4 C-26 31.06 -26 58.12 -26 86 C-31.28 86 -36.56 86 -42 86 C-41.67 85.01 -41.34 84.02 -41 83 C-36.71 83.33 -32.42 83.66 -28 84 C-28.00444122 83.01694382 -28.00888245 82.03388763 -28.01345825 81.02104187 C-28.05396715 71.76553599 -28.0839665 62.51004804 -28.10362434 53.25447369 C-28.1140703 48.49586485 -28.12824431 43.73732747 -28.15087891 38.97875977 C-28.17257834 34.38816944 -28.18456251 29.79764792 -28.18975449 25.20701027 C-28.19345546 23.45388518 -28.20068236 21.70076394 -28.21146011 19.94766808 C-28.22593655 17.49587176 -28.22797957 15.04436134 -28.22705078 12.5925293 C-28.23424133 11.86460678 -28.24143188 11.13668427 -28.24884033 10.38670349 C-28.233662 6.6941978 -28.10659383 5.15989075 -26 2 C-23.38623047 1.65942383 -23.38623047 1.65942383 -20.1171875 1.70703125 C-18.95058594 1.71669922 -17.78398438 1.72636719 -16.58203125 1.73632812 C-15.35871094 1.76146484 -14.13539063 1.78660156 -12.875 1.8125 C-11.64394531 1.82603516 -10.41289063 1.83957031 -9.14453125 1.85351562 C-6.09592157 1.88896457 -3.048175 1.93837921 0 2 C0 1.34 0 0.68 0 0 Z " fill="#040505" transform="translate(728,435)"/>
<path d="M0 0 C23.1 0 46.2 0 70 0 C70 3.96 70 7.92 70 12 C61.42 12 52.84 12 44 12 C46 10 46 10 48.24658203 9.86474609 C49.15778809 9.91711426 50.06899414 9.96948242 51.0078125 10.0234375 C51.99394531 10.075 52.98007812 10.1265625 53.99609375 10.1796875 C55.54490234 10.27636719 55.54490234 10.27636719 57.125 10.375 C58.68541016 10.46007812 58.68541016 10.46007812 60.27734375 10.546875 C62.85223418 10.68861209 65.4261874 10.84004554 68 11 C68 8.03 68 5.06 68 2 C45.89 2 23.78 2 1 2 C1.33 4.97 1.66 7.94 2 11 C10.25 11 18.5 11 27 11 C27 11.33 27 11.66 27 12 C18.09 12 9.18 12 0 12 C0 8.04 0 4.08 0 0 Z " fill="#010102" transform="translate(452,427)"/>
<path d="M0 0 C0.33 0 0.66 0 1 0 C1 28.71 1 57.42 1 87 C-3.29 87 -7.58 87 -12 87 C-12 84.36 -12 81.72 -12 79 C-11 81 -10 83 -9 85 C-6.69 85 -4.38 85 -2 85 C-1.9845388 83.42479332 -1.9845388 83.42479332 -1.96876526 81.81776428 C-1.87120459 71.9434829 -1.76848742 62.06926698 -1.66066074 52.1950922 C-1.60538726 47.11812116 -1.55196033 42.04114441 -1.50268555 36.96411133 C-1.45510709 32.06874337 -1.40276692 27.17344779 -1.34705925 22.27816582 C-1.32660605 20.40619129 -1.30789799 18.5341969 -1.29092598 16.66218758 C-1.26694732 14.04953924 -1.23688426 11.43702903 -1.20532227 8.82446289 C-1.1995668 8.04259613 -1.19381134 7.26072937 -1.18788147 6.45516968 C-1.11405216 1.11405216 -1.11405216 1.11405216 0 0 Z " fill="#000101" transform="translate(670,553)"/>
<path d="M0 0 C15.51 0 31.02 0 47 0 C47 0.66 47 1.32 47 2 C32.15 2 17.3 2 2 2 C2 26.09 2 50.18 2 75 C1.67 75 1.34 75 1 75 C0.67 50.25 0.34 25.5 0 0 Z " fill="#010101" transform="translate(457,546)"/>
<path d="M0 0 C5.28 0 10.56 0 16 0 C15.67 22.77 15.34 45.54 15 69 C11.37 68.67 7.74 68.34 4 68 C4 67.67 4 67.34 4 67 C6.97 67 9.94 67 13 67 C12.99777939 66.22992111 12.99555878 65.45984222 12.99327087 64.66642761 C12.97324119 57.41230341 12.95801217 50.1581926 12.94818783 42.90404797 C12.94296727 39.17454538 12.9358846 35.44506562 12.92456055 31.71557617 C12.91370233 28.11702055 12.90771692 24.5184869 12.90512276 20.91991615 C12.90327381 19.54638638 12.89966334 18.17285782 12.89426994 16.79933739 C12.88702072 14.87689764 12.88659161 12.95443583 12.88647461 11.03198242 C12.884254 9.93722092 12.88203339 8.84245941 12.87974548 7.71452332 C13 5 13 5 14 2 C10.04 2 6.08 2 2 2 C1.67 2.99 1.34 3.98 1 5 C0.67 3.35 0.34 1.7 0 0 Z " fill="#050606" transform="translate(739,452)"/>
<path d="M0 0 C65.835 0.495 65.835 0.495 133 1 C133 1.33 133 1.66 133 2 C89.77 2 46.54 2 2 2 C2 6.95 2 11.9 2 17 C1.34 16.67 0.68 16.34 0 16 C0 10.72 0 5.44 0 0 Z " fill="#969695" transform="translate(213,623)"/>
<path d="M0 0 C1.91847477 3.83694953 2.247146 5.07650751 2.22705078 9.13574219 C2.22689972 10.15649841 2.22674866 11.17725464 2.22659302 12.22894287 C2.21627045 13.32386047 2.20594788 14.41877808 2.1953125 15.546875 C2.1924826 16.6732135 2.18965271 17.799552 2.18673706 18.96002197 C2.17554374 22.55678946 2.15044037 26.15330779 2.125 29.75 C2.11496912 32.18879849 2.10584346 34.62760088 2.09765625 37.06640625 C2.07560712 43.04436681 2.04108277 49.02214116 2 55 C-3.28 55 -8.56 55 -14 55 C-13.67 40.48 -13.34 25.96 -13 11 C-12.67 11 -12.34 11 -12 11 C-11.67 24.86 -11.34 38.72 -11 53 C-7.37 53 -3.74 53 0 53 C0 35.51 0 18.02 0 0 Z " fill="#3E3E3E" transform="translate(869,466)"/>
<path d="M0 0 C0.495 0.99 0.495 0.99 1 2 C1.66 2 2.32 2 3 2 C3 4.97 3 7.94 3 11 C-13.5 11 -30 11 -47 11 C-46.67 14.3 -46.34 17.6 -46 21 C-49 18 -49 18 -49.29296875 15.95703125 C-49.1953125 13.97135417 -49.09765625 11.98567708 -49 10 C-46.58225419 8.79112709 -45.06668936 8.87940657 -42.36669922 8.88647461 C-41.40585419 8.88655014 -40.44500916 8.88662567 -39.45504761 8.88670349 C-38.41542877 8.89186478 -37.37580994 8.89702606 -36.3046875 8.90234375 C-35.24210724 8.9037587 -34.17952698 8.90517365 -33.08474731 8.90663147 C-29.68146991 8.91224166 -26.27825762 8.92479591 -22.875 8.9375 C-20.57161553 8.94251369 -18.26823003 8.94707682 -15.96484375 8.95117188 C-10.30987064 8.96221441 -4.65494637 8.97948591 1 9 C0.505 4.545 0.505 4.545 0 0 Z " fill="#040505" transform="translate(944,478)"/>
<path d="M0 0 C0.99 0.495 0.99 0.495 2 1 C2 2.65 2 4.3 2 6 C2.74685059 5.99476318 3.49370117 5.98952637 4.26318359 5.98413086 C7.63378057 5.96339599 11.00436414 5.95035101 14.375 5.9375 C16.1384375 5.92493164 16.1384375 5.92493164 17.9375 5.91210938 C19.61972656 5.90727539 19.61972656 5.90727539 21.3359375 5.90234375 C22.89127197 5.89448853 22.89127197 5.89448853 24.47802734 5.88647461 C27 6 27 6 29 7 C31.03194482 18.11385474 29.73164197 29.8115058 29 41 C28.01 41.495 28.01 41.495 27 42 C27 30.78 27 19.56 27 8 C18.09 8 9.18 8 0 8 C0 5.36 0 2.72 0 0 Z " fill="#030404" transform="translate(660,431)"/>
<path d="M0 0 C4.95 0 9.9 0 15 0 C15 0.66 15 1.32 15 2 C10.71 2 6.42 2 2 2 C2 13.22 2 24.44 2 36 C-0.296537 37.1482685 -1.58313167 37.11561175 -4.1328125 37.09765625 C-4.93847656 37.09443359 -5.74414062 37.09121094 -6.57421875 37.08789062 C-7.83685547 37.07532227 -7.83685547 37.07532227 -9.125 37.0625 C-9.97449219 37.05798828 -10.82398438 37.05347656 -11.69921875 37.04882812 C-13.79950909 37.03702874 -15.8997633 37.01909306 -18 37 C-18 36.34 -18 35.68 -18 35 C-12.06 35 -6.12 35 0 35 C0 23.45 0 11.9 0 0 Z " fill="#FBFAF9" transform="translate(473,606)"/>
<path d="M0 0 C0.76376953 -0.01998047 1.52753906 -0.03996094 2.31445312 -0.06054688 C6.12555108 -0.05722999 7.97602441 -0.0025826 11.09765625 2.33984375 C12.5625 4.4375 12.5625 4.4375 12.5625 6.4375 C11.5725 6.1075 10.5825 5.7775 9.5625 5.4375 C9.2325 4.7775 8.9025 4.1175 8.5625 3.4375 C2.6225 3.1075 -3.3175 2.7775 -9.4375 2.4375 C-9.4375 14.3175 -9.4375 26.1975 -9.4375 38.4375 C-13.0675 38.1075 -16.6975 37.7775 -20.4375 37.4375 C-20.4375 37.1075 -20.4375 36.7775 -20.4375 36.4375 C-17.7975 36.1075 -15.1575 35.7775 -12.4375 35.4375 C-12.42291748 34.48383545 -12.40833496 33.5301709 -12.39331055 32.54760742 C-12.33532208 29.00816415 -12.25809042 25.46935676 -12.17504883 21.93041992 C-12.14180182 20.39894941 -12.11376907 18.86735644 -12.09106445 17.33569336 C-12.05751282 15.13342113 -12.0052009 12.93227088 -11.94921875 10.73046875 C-11.94282883 10.04599167 -11.9364389 9.36151459 -11.92985535 8.65629578 C-11.84318852 5.85220181 -11.72868302 3.87284176 -10.14746094 1.50878906 C-7.06997545 -0.41925296 -3.51768838 -0.03248915 0 0 Z " fill="#020203" transform="translate(481.4375,602.5625)"/>
<path d="M0 0 C16.5 0 33 0 50 0 C50 0.33 50 0.66 50 1 C33.83 1 17.66 1 1 1 C1.33 1.66 1.66 2.32 2 3 C17.84 3 33.68 3 50 3 C50 3.33 50 3.66 50 4 C34.49 4 18.98 4 3 4 C3.66 5.98 4.32 7.96 5 10 C4.34 10.66 3.68 11.32 3 12 C0.7981069 7.32097716 0 5.37483542 0 0 Z " fill="#B5B4B1" transform="translate(897,489)"/>
<path d="M0 0 C0.33 0 0.66 0 1 0 C1.02505615 1.14364014 1.0501123 2.28728027 1.07592773 3.46557617 C1.17115938 7.76904696 1.27108169 12.07239897 1.37231445 16.37573242 C1.41523124 18.22694084 1.4569298 20.07817797 1.49731445 21.92944336 C1.72480176 32.31803041 2.02490511 42.64963694 3 53 C6.3 53.33 9.6 53.66 13 54 C13 54.33 13 54.66 13 55 C8.38 55 3.76 55 -1 55 C-0.67 36.85 -0.34 18.7 0 0 Z " fill="#323433" transform="translate(770,466)"/>
<path d="M0 0 C0.33 0 0.66 0 1 0 C1 9.24 1 18.48 1 28 C6.94 28 12.88 28 19 28 C19 28.66 19 29.32 19 30 C12.4 30 5.8 30 -1 30 C-1.08847736 19.91358078 -0.87966158 10.05327519 0 0 Z " fill="#FAF9F8" transform="translate(474,561)"/>
<path d="M0 0 C0.33 0 0.66 0 1 0 C1 10.23 1 20.46 1 31 C0.67 31 0.34 31 0 31 C-0.495 33.475 -0.495 33.475 -1 36 C-1.33 36 -1.66 36 -2 36 C-3.12866889 28.81917746 -3.11434249 21.75794868 -3.0625 14.5 C-3.05798828 13.29601562 -3.05347656 12.09203125 -3.04882812 10.8515625 C-3.0371195 7.90098927 -3.02071995 4.95052141 -3 2 C-2.67 2 -2.34 2 -2 2 C-1.67 5.96 -1.34 9.92 -1 14 C-0.67 9.38 -0.34 4.76 0 0 Z " fill="#212122" transform="translate(146,461)"/>
<path d="M0 0 C0.33 0 0.66 0 1 0 C1.8981289 7.63409563 1.8981289 7.63409563 -0.125 10.7109375 C-2.61497155 12.95450562 -4.78824539 13.9611063 -8.0625 14.5625 C-11.82662066 13.84171094 -13.43724531 12.85564095 -16 10 C-16.8125 6.25 -16.8125 6.25 -17 3 C-16.34 2.67 -15.68 2.34 -15 2 C-14.34 4.31 -13.68 6.62 -13 9 C-11.741875 9.185625 -10.48375 9.37125 -9.1875 9.5625 C-8.47980469 9.66691406 -7.77210938 9.77132813 -7.04296875 9.87890625 C-4.7974658 10.13904799 -4.7974658 10.13904799 -2 9 C-1.19436362 6.89415562 -1.19436362 6.89415562 -0.8125 4.4375 C-0.65394531 3.61121094 -0.49539063 2.78492188 -0.33203125 1.93359375 C-0.16767578 0.97646484 -0.16767578 0.97646484 0 0 Z " fill="#121313" transform="translate(755,427)"/>
<path d="M0 0 C4.61948575 6.92922862 4.31501673 15.3020895 4.25 23.375 C4.25773437 24.35855469 4.26546875 25.34210938 4.2734375 26.35546875 C4.27085937 27.29777344 4.26828125 28.24007813 4.265625 29.2109375 C4.26336914 30.05962402 4.26111328 30.90831055 4.25878906 31.78271484 C4 34 4 34 2 37 C1.97494385 36.34104736 1.9498877 35.68209473 1.92407227 35.00317383 C1.27165735 17.48314324 1.27165735 17.48314324 0 0 Z " fill="#5DB885" transform="translate(363,453)"/>
<path d="M0 0 C0.33 0 0.66 0 1 0 C1 2.64 1 5.28 1 8 C6.28 8 11.56 8 17 8 C17.33 7.34 17.66 6.68 18 6 C17.67 7.32 17.34 8.64 17 10 C11.39 10 5.78 10 0 10 C-0.66 8.68 -1.32 7.36 -2 6 C-2.66 6.66 -3.32 7.32 -4 8 C-4.99 7.67 -5.98 7.34 -7 7 C-4.66666667 4.66666667 -2.33333333 2.33333333 0 0 Z " fill="#F6F5F4" transform="translate(656,633)"/>
<path d="M0 0 C0.66 0.33 1.32 0.66 2 1 C2.08834684 4.31232698 2.14083584 7.62434435 2.1875 10.9375 C2.21263672 11.86369141 2.23777344 12.78988281 2.26367188 13.74414062 C2.33010773 20.05554674 1.40207858 25.15864318 -1 31 C-1.33 31 -1.66 31 -2 31 C-1.34 20.77 -0.68 10.54 0 0 Z " fill="#5BB382" transform="translate(337,465)"/>
<path d="M0 0 C3.37462715 0.54723683 5.08235 1.0549 8 3 C7.34 3 6.68 3 6 3 C5.67 3.66 5.34 4.32 5 5 C4.01 4.67 3.02 4.34 2 4 C-0.45066726 5.71546709 -2.55138001 7.53412539 -4.625 9.6875 C-6 11 -6 11 -9 12 C-10.89952346 11.91478259 -12.79663573 11.76270916 -14.6875 11.5625 C-16.17830078 11.40974609 -16.17830078 11.40974609 -17.69921875 11.25390625 C-18.45847656 11.17011719 -19.21773437 11.08632813 -20 11 C-20 10.67 -20 10.34 -20 10 C-19.11957031 9.90203125 -18.23914063 9.8040625 -17.33203125 9.703125 C-16.17058594 9.55359375 -15.00914062 9.4040625 -13.8125 9.25 C-12.08966797 9.04117187 -12.08966797 9.04117187 -10.33203125 8.828125 C-6.60610963 7.90210462 -4.75321143 6.63350658 -2 4 C-0.68834743 1.88339573 -0.68834743 1.88339573 0 0 Z " fill="#1A1B1B" transform="translate(931,498)"/>
<path d="M0 0 C0 0.33 0 0.66 0 1 C-12.375 1.495 -12.375 1.495 -25 2 C-24.67 1.34 -24.34 0.68 -24 0 C-15.6659465 -2.67880291 -8.28791752 -2.82141873 0 0 Z " fill="#DADAD9" transform="translate(635,450)"/>
<path d="M0 0 C0.33 0.66 0.66 1.32 1 2 C-1.96249651 6.07343271 -5.38359352 9.20566166 -9.1953125 12.44921875 C-11.07711254 14.02681009 -11.07711254 14.02681009 -13 16 C-13.99 16 -14.98 16 -16 16 C-16.33 16.99 -16.66 17.98 -17 19 C-20.5625 20.1875 -20.5625 20.1875 -24 21 C-21.11854248 17.96333516 -18.10707427 15.53369588 -14.6875 13.125 C-6.50868301 7.41819361 -6.50868301 7.41819361 0 0 Z " fill="#C6C6C5" transform="translate(381,572)"/>
<path d="M0 0 C2.83339965 -0.02724423 5.66653117 -0.04695589 8.5 -0.0625 C9.29148437 -0.07087891 10.08296875 -0.07925781 10.8984375 -0.08789062 C16.02305817 -0.10889317 20.94767701 0.09536109 26 1 C26.33 1.66 26.66 2.32 27 3 C13.14 2.505 13.14 2.505 -1 2 C-0.67 1.34 -0.34 0.68 0 0 Z " fill="#5AB281" transform="translate(276,350)"/>
<path d="M0 0 C0.53625 0.226875 1.0725 0.45375 1.625 0.6875 C-0.16922029 2.780757 -1.60495744 3.79725241 -4.125 5 C-8.07855735 7.05280862 -11.10404541 9.69718944 -14.375 12.6875 C-14.705 12.0275 -15.035 11.3675 -15.375 10.6875 C-13.75905168 8.64630212 -12.0893618 6.64677063 -10.375 4.6875 C-9.715 4.6875 -9.055 4.6875 -8.375 4.6875 C-8.375 4.0275 -8.375 3.3675 -8.375 2.6875 C-2.95961538 -0.38942308 -2.95961538 -0.38942308 0 0 Z " fill="#181919" transform="translate(703.375,572.3125)"/>
<path d="M0 0 C-9.57043854 3.6410917 -17.64622349 4.42312183 -27.8125 3.75 C-29.08931641 3.68425781 -30.36613281 3.61851562 -31.68164062 3.55078125 C-34.78952301 3.38782113 -37.89458647 3.20397015 -41 3 C-41 2.67 -41 2.34 -41 2 C-40.23969482 1.98018066 -39.47938965 1.96036133 -38.69604492 1.93994141 C-35.19289648 1.84365868 -31.69026225 1.73440434 -28.1875 1.625 C-26.99189453 1.5940625 -25.79628906 1.563125 -24.56445312 1.53125 C-17.93846881 1.31459656 -11.67723574 0.76391575 -5.20043945 -0.68212891 C-3 -1 -3 -1 0 0 Z " fill="#4E986F" transform="translate(311,572)"/>
<path d="M0 0 C6.27 0 12.54 0 19 0 C18.01 1.485 18.01 1.485 17 3 C14.2114711 3.22107787 11.65346819 3.28107535 8.875 3.1875 C8.12089844 3.17396484 7.36679687 3.16042969 6.58984375 3.14648438 C4.72625873 3.11109985 2.86304022 3.05729167 1 3 C0.67 2.01 0.34 1.02 0 0 Z " fill="#E9E8E7" transform="translate(542,522)"/>
<path d="M0 0 C0.33 0 0.66 0 1 0 C1.02690844 2.62506802 1.04679404 5.24986173 1.0625 7.875 C1.07087891 8.62136719 1.07925781 9.36773437 1.08789062 10.13671875 C1.11328125 15.7734375 1.11328125 15.7734375 0 18 C-0.22467831 19.53668865 -0.40796805 21.07968054 -0.5625 22.625 C-0.64628906 23.44226563 -0.73007813 24.25953125 -0.81640625 25.1015625 C-0.87699219 25.72804688 -0.93757812 26.35453125 -1 27 C-1.33 27 -1.66 27 -2 27 C-2 19.74 -2 12.48 -2 5 C-1.34 5 -0.68 5 0 5 C0 3.35 0 1.7 0 0 Z " fill="#4D976F" transform="translate(155,460)"/>
<path d="M0 0 C3.92331434 0.22418939 4.96128088 0.95952092 7.75 3.875 C11.30044975 8.80618021 11.09567567 12.16378404 11 18 C10.34 18 9.68 18 9 18 C8.79503906 17.16855469 8.59007812 16.33710937 8.37890625 15.48046875 C7.97478516 13.85044922 7.97478516 13.85044922 7.5625 12.1875 C7.29566406 11.10855469 7.02882813 10.02960937 6.75390625 8.91796875 C6.23922588 6.9259157 5.65062825 4.95188476 5 3 C3.35 2.67 1.7 2.34 0 2 C0 1.34 0 0.68 0 0 Z " fill="#E0E0E0" transform="translate(498,561)"/>
<path d="M0 0 C2.31 0.66 4.62 1.32 7 2 C4.98032248 3.0819701 3.35110706 3.95469586 1.0625 4.25 C-1.37479501 4.93628226 -1.37479501 4.93628226 -3.4375 8 C-6 11 -6 11 -8.375 11.9375 C-11.67240566 12.01600966 -14.75686342 11.57231822 -18 11 C-18 10.67 -18 10.34 -18 10 C-17.35933594 9.92523438 -16.71867188 9.85046875 -16.05859375 9.7734375 C-9.52971362 8.78096988 -5.42157599 6.97596319 -1 2 C-0.67 1.34 -0.34 0.68 0 0 Z " fill="#181919" transform="translate(641,498)"/>
<path d="M0 0 C0.66 0.33 1.32 0.66 2 1 C-0.50809539 5.86865575 -4.09289976 9.26236435 -8 13 C-8.66 13.66 -9.32 14.32 -10 15 C-10.66 14.67 -11.32 14.34 -12 14 C-10.41332422 10.09714233 -7.86649519 7.66479018 -4.875 4.75 C-3.96492188 3.85796875 -3.05484375 2.9659375 -2.1171875 2.046875 C-1.41851562 1.37140625 -0.71984375 0.6959375 0 0 Z " fill="#CFCFCD" transform="translate(331,649)"/>
<path d="M0 0 C0.66 0.33 1.32 0.66 2 1 C1.01 1.66 0.02 2.32 -1 3 C-0.67 2.01 -0.34 1.02 0 0 Z M-3 3 C-2.34 3.33 -1.68 3.66 -1 4 C-1.66 5.98 -2.32 7.96 -3 10 C-3.66 10 -4.32 10 -5 10 C-5 10.99 -5 11.98 -5 13 C-5.99 13.495 -5.99 13.495 -7 14 C-7.46751788 16.35599235 -7.46751788 16.35599235 -7.625 19.0625 C-7.69976563 19.98160156 -7.77453125 20.90070312 -7.8515625 21.84765625 C-7.90054688 22.55792969 -7.94953125 23.26820313 -8 24 C-8.33 24 -8.66 24 -9 24 C-9.02703381 22.06257659 -9.04641125 20.12504521 -9.0625 18.1875 C-9.07410156 17.10855469 -9.08570313 16.02960937 -9.09765625 14.91796875 C-9 12 -9 12 -8 9 C-7.34 9 -6.68 9 -6 9 C-5.690625 8.195625 -5.38125 7.39125 -5.0625 6.5625 C-4 4 -4 4 -3 3 Z " fill="#2D2E2E" transform="translate(543,604)"/>
<path d="M0 0 C0 4.04331807 -1.62075189 6.51740765 -4.35546875 9.45703125 C-6.16244677 11.15241443 -8.03392457 12.67943078 -10 14.1875 C-10.680625 14.71730469 -11.36125 15.24710937 -12.0625 15.79296875 C-14 17 -14 17 -17 17 C-11.39 11.39 -5.78 5.78 0 0 Z " fill="#519F75" transform="translate(374,395)"/>
<path d="M0 0 C0.33 0 0.66 0 1 0 C0.67 7.26 0.34 14.52 0 22 C-0.66 22.33 -1.32 22.66 -2 23 C-2.0580476 19.72924117 -2.09361165 16.45861476 -2.125 13.1875 C-2.14175781 12.25873047 -2.15851562 11.32996094 -2.17578125 10.37304688 C-2.18222656 9.48037109 -2.18867187 8.58769531 -2.1953125 7.66796875 C-2.20578613 6.84578857 -2.21625977 6.0236084 -2.22705078 5.17651367 C-2 3 -2 3 0 0 Z " fill="#040404" transform="translate(594,473)"/>
<path d="M0 0 C0 0.66 0 1.32 0 2 C-1.10408203 2.14695312 -1.10408203 2.14695312 -2.23046875 2.296875 C-7.93642271 3.17123518 -11.72800723 3.861507 -16 8 C-16.99 8.33 -17.98 8.66 -19 9 C-17.7410082 5.22302461 -15.33248877 3.17119202 -12.15234375 0.97265625 C-8.23551083 -0.79738258 -4.20051233 -0.38032808 0 0 Z " fill="#181C18" transform="translate(287,460)"/>
<path d="M0 0 C4.1724106 0.51881113 6.25416821 1.71151274 9.3125 4.5625 C10.00988281 5.20316406 10.70726562 5.84382813 11.42578125 6.50390625 C11.94527344 6.99761719 12.46476563 7.49132812 13 8 C13.45375 7.34 13.9075 6.68 14.375 6 C15.179375 5.01 15.179375 5.01 16 4 C16.66 4 17.32 4 18 4 C16.55746343 7.36591866 14.66735273 9.51047079 12 12 C11.2884375 10.63875 11.2884375 10.63875 10.5625 9.25 C7.79757297 5.00709379 3.60477232 3.67267371 -1 2 C-0.67 1.34 -0.34 0.68 0 0 Z " fill="#E2E2E1" transform="translate(811,450)"/>
<path d="M0 0 C0.66 0.99 1.32 1.98 2 3 C1.41299316 2.93433838 0.82598633 2.86867676 0.22119141 2.80102539 C-6.39006976 2.09641946 -12.98311073 1.70796412 -19.625 1.4375 C-20.62917969 1.39431641 -21.63335937 1.35113281 -22.66796875 1.30664062 C-25.11188383 1.20190141 -27.55587617 1.09972744 -30 1 C-30 0.67 -30 0.34 -30 0 C-26.31300513 -0.1984578 -22.62540378 -0.38178602 -18.9375 -0.5625 C-17.89916016 -0.61857422 -16.86082031 -0.67464844 -15.79101562 -0.73242188 C-5.01608556 -1.24551378 -5.01608556 -1.24551378 0 0 Z " fill="#448460" transform="translate(301,379)"/>
<path d="M0 0 C0 0.66 0 1.32 0 2 C-3.71888866 2.8632601 -7.14296488 3.11721556 -10.95703125 3.09765625 C-12.06884766 3.09443359 -13.18066406 3.09121094 -14.32617188 3.08789062 C-15.47666016 3.07951172 -16.62714844 3.07113281 -17.8125 3.0625 C-19.56723633 3.05573242 -19.56723633 3.05573242 -21.35742188 3.04882812 C-24.23833358 3.0370693 -27.11914044 3.02063426 -30 3 C-30 2.67 -30 2.34 -30 2 C-28.84242188 1.93941406 -27.68484375 1.87882813 -26.4921875 1.81640625 C-24.95311543 1.73194498 -23.41405345 1.64729982 -21.875 1.5625 C-21.11445313 1.52318359 -20.35390625 1.48386719 -19.5703125 1.44335938 C-12.97796407 1.07396054 -6.61818702 -0.13236374 0 0 Z " fill="#60BD88" transform="translate(301,559)"/>
<path d="M0 0 C1.6004368 4.8013104 -1.1278124 8.2387156 -3.25 12.625 C-3.65863281 13.50929688 -4.06726563 14.39359375 -4.48828125 15.3046875 C-4.88917969 16.14515625 -5.29007812 16.985625 -5.703125 17.8515625 C-6.07083008 18.62322754 -6.43853516 19.39489258 -6.81738281 20.18994141 C-8 22 -8 22 -11 23 C-10.71898437 22.45988281 -10.43796875 21.91976562 -10.1484375 21.36328125 C-8.84551383 18.68209478 -7.7394266 15.95227172 -6.625 13.1875 C-4.71146377 8.54845223 -2.62223554 4.27327273 0 0 Z " fill="#5BB482" transform="translate(400,520)"/>
<path d="M0 0 C0.33 0 0.66 0 1 0 C1.33 1.65 1.66 3.3 2 5 C2.33 5 2.66 5 3 5 C3 9.95 3 14.9 3 20 C2.34 20 1.68 20 1 20 C-0.14982602 15.90996141 -0.11094256 11.96822949 -0.0625 7.75 C-0.05798828 7.00492187 -0.05347656 6.25984375 -0.04882812 5.4921875 C-0.03709246 3.6614236 -0.0191585 1.83070127 0 0 Z " fill="#1C2721" transform="translate(226,467)"/>
<path d="M0 0 C0.77214844 -0.00386719 1.54429687 -0.00773437 2.33984375 -0.01171875 C5.64503737 -0.00599051 8.34377498 0.07292499 11.5 1.125 C11.5 1.785 11.5 2.445 11.5 3.125 C8.89576408 3.15197137 6.29180756 3.17182489 3.6875 3.1875 C2.94951172 3.19587891 2.21152344 3.20425781 1.45117188 3.21289062 C-1.79922068 3.22759828 -4.39404895 3.16031702 -7.5 2.125 C-8.83106622 1.78272583 -10.16400079 1.44748257 -11.5 1.125 C-7.65021634 -0.15826122 -4.00926659 -0.0200798 0 0 Z " fill="#509B72" transform="translate(280.5,432.875)"/>
<path d="M0 0 C4.77361291 0.04813727 8.18654806 0.19022982 12.01171875 3.3984375 C12.01171875 4.0584375 12.01171875 4.7184375 12.01171875 5.3984375 C6.73171875 4.7384375 1.45171875 4.0784375 -3.98828125 3.3984375 C-1.98828125 0.3984375 -1.98828125 0.3984375 0 0 Z " fill="#272828" transform="translate(636.98828125,581.6015625)"/>
<path d="M0 0 C5.28 0 10.56 0 16 0 C16 1.98 16 3.96 16 6 C15.34 6 14.68 6 14 6 C14 4.68 14 3.36 14 2 C10.04 2 6.08 2 2 2 C1.67 2.99 1.34 3.98 1 5 C0.67 3.35 0.34 1.7 0 0 Z " fill="#040404" transform="translate(656,546)"/>
<path d="M0 0 C0.66 0.33 1.32 0.66 2 1 C1.28082397 1.7113208 1.28082397 1.7113208 0.54711914 2.43701172 C-1.61701838 4.58040335 -3.77729647 6.7276439 -5.9375 8.875 C-6.69224609 9.62136719 -7.44699219 10.36773437 -8.22460938 11.13671875 C-8.94326172 11.85214844 -9.66191406 12.56757813 -10.40234375 13.3046875 C-11.06741943 13.96452637 -11.73249512 14.62436523 -12.41772461 15.30419922 C-14.0813711 16.92673932 -14.0813711 16.92673932 -15 19 C-16.32 18.67 -17.64 18.34 -19 18 C-19 17.34 -19 16.68 -19 16 C-18.41573242 15.90468994 -17.83146484 15.80937988 -17.22949219 15.71118164 C-14.50889191 14.84334233 -13.31439629 13.65873412 -11.328125 11.62109375 C-10.66425781 10.94755859 -10.00039063 10.27402344 -9.31640625 9.58007812 C-8.29353516 8.51950195 -8.29353516 8.51950195 -7.25 7.4375 C-6.55261719 6.72658203 -5.85523438 6.01566406 -5.13671875 5.28320312 C-3.4175342 3.52869286 -1.70574128 1.76756648 0 0 Z " fill="#5CB585" transform="translate(364,385)"/>
<path d="M0 0 C1.45823212 -0.0270043 2.91660675 -0.04639787 4.375 -0.0625 C5.18710938 -0.07410156 5.99921875 -0.08570313 6.8359375 -0.09765625 C9 0 9 0 11 1 C11 1.66 11 2.32 11 3 C15.29 3 19.58 3 24 3 C24 3.66 24 4.32 24 5 C24.99 5.33 25.98 5.66 27 6 C21.20477164 6.19512553 16.27743301 5.6135374 10.6875 4.125 C9.98560547 3.95097656 9.28371094 3.77695312 8.56054688 3.59765625 C5.25346632 2.74645344 2.86755168 1.91170112 0 0 Z " fill="#427F5E" transform="translate(239,597)"/>
<path d="M0 0 C5.52729961 5.00911527 10.65892837 11.31785674 14 18 C7.58865556 15.18121926 3.48477802 8.89731665 0 3 C0 2.01 0 1.02 0 0 Z " fill="#5BB383" transform="translate(207,518)"/>
<path d="M0 0 C1.21236328 0.01353516 1.21236328 0.01353516 2.44921875 0.02734375 C3.37154297 0.04474609 3.37154297 0.04474609 4.3125 0.0625 C4.3125 1.0525 4.3125 2.0425 4.3125 3.0625 C3.74402344 3.01609375 3.17554688 2.9696875 2.58984375 2.921875 C-3.53107909 2.63575507 -6.55244172 3.81378966 -11.6875 7.0625 C-12.3475 6.7325 -13.0075 6.4025 -13.6875 6.0625 C-9.04476089 2.03879277 -6.35106901 -0.09204448 0 0 Z " fill="#E2E3E2" transform="translate(550.6875,463.9375)"/>
<path d="M0 0 C0.97582031 0.10183594 1.95164062 0.20367188 2.95703125 0.30859375 C3.69308594 0.39238281 4.42914062 0.47617187 5.1875 0.5625 C5.1875 1.2225 5.1875 1.8825 5.1875 2.5625 C-0.4225 2.5625 -6.0325 2.5625 -11.8125 2.5625 C-11.4825 1.9025 -11.1525 1.2425 -10.8125 0.5625 C-7.0789401 -0.54496804 -3.84255102 -0.41666216 0 0 Z " fill="#070707" transform="translate(718.8125,571.4375)"/>
<path d="M0 0 C5.28 0 10.56 0 16 0 C15.67 1.65 15.34 3.3 15 5 C14.67 4.01 14.34 3.02 14 2 C10.04 2 6.08 2 2 2 C1.67 2.99 1.34 3.98 1 5 C0.67 3.35 0.34 1.7 0 0 Z " fill="#010202" transform="translate(739,452)"/>
<path d="M0 0 C2.27076842 -0.02699725 4.54162821 -0.04639453 6.8125 -0.0625 C8.07707031 -0.07410156 9.34164062 -0.08570313 10.64453125 -0.09765625 C14 0 14 0 17 1 C17 1.66 17 2.32 17 3 C14 4 14 4 11 3 C8.94106379 2.77674186 6.87766347 2.59294241 4.8125 2.4375 C3.18248047 2.31181641 3.18248047 2.31181641 1.51953125 2.18359375 C0.68808594 2.12300781 -0.14335938 2.06242187 -1 2 C-0.67 1.34 -0.34 0.68 0 0 Z " fill="#030404" transform="translate(840,451)"/>
<path d="M0 0 C-0.99 0 -1.98 0 -3 0 C-3 0.66 -3 1.32 -3 2 C-4.2065625 2.8971875 -4.2065625 2.8971875 -5.4375 3.8125 C-8.29710802 6.2536288 -8.6953187 7.34382438 -9 11 C-9.99 11 -10.98 11 -12 11 C-11.63166144 4.61546499 -11.63166144 4.61546499 -8.5625 1.625 C-5.02049592 -0.62114893 -3.99232074 -1.19769622 0 0 Z " fill="#E5E5E3" transform="translate(711,612)"/>
<path d="M0 0 C0.66 0 1.32 0 2 0 C0.6415798 3.04332765 -0.88463024 5.12309151 -3.2578125 7.453125 C-3.88300781 8.071875 -4.50820313 8.690625 -5.15234375 9.328125 C-5.80332031 9.96234375 -6.45429688 10.5965625 -7.125 11.25 C-7.78371094 11.8996875 -8.44242187 12.549375 -9.12109375 13.21875 C-10.74296643 14.81711727 -12.3693281 16.41061897 -14 18 C-14.66 17.67 -15.32 17.34 -16 17 C-12.64131307 12.69668237 -9.07063005 9.19472451 -4.8671875 5.7109375 C-2.91258863 4.03224606 -2.91258863 4.03224606 -1.3828125 1.7890625 C-0.92648437 1.19867188 -0.47015625 0.60828125 0 0 Z " fill="#5DB785" transform="translate(336,412)"/>
<path d="M0 0 C1.32 0 2.64 0 4 0 C2.55218207 3.44428265 0.72305391 5.36130962 -2.125 7.75 C-3.21167969 8.67039062 -3.21167969 8.67039062 -4.3203125 9.609375 C-4.87460937 10.06828125 -5.42890625 10.5271875 -6 11 C-6 6.9666466 -4.39120082 5.16482462 -2 2 C-1.34 2 -0.68 2 0 2 C0 1.34 0 0.68 0 0 Z " fill="#151616" transform="translate(648,507)"/>
<path d="M0 0 C1.125 3.75 1.125 3.75 0 6 C-1.99145086 6.29382062 -3.98536906 6.57988001 -5.98828125 6.78125 C-8.05826513 7.00633563 -10.00142737 7.41708298 -12 8 C-12 7.34 -12 6.68 -12 6 C-5.5 3 -5.5 3 -1 3 C-0.67 2.01 -0.34 1.02 0 0 Z " fill="#5AB080" transform="translate(321,491)"/>
<path d="M0 0 C2.11207757 5.86688215 -0.07172788 12.3286114 -2 18 C-2.66 18.33 -3.32 18.66 -4 19 C-3.66944259 12.05829437 -3.24571282 6.20918975 0 0 Z " fill="#B5B5B4" transform="translate(304,687)"/>
<path d="M0 0 C0.33 0 0.66 0 1 0 C1 8.58 1 17.16 1 26 C0.01 26.33 -0.98 26.66 -2 27 C-1.84660156 26.23429688 -1.69320312 25.46859375 -1.53515625 24.6796875 C-0.8304832 19.83441732 -0.63953203 15.01351261 -0.4375 10.125 C-0.39431641 9.15046875 -0.35113281 8.1759375 -0.30664062 7.171875 C-0.20117726 4.78137198 -0.09905825 2.39077556 0 0 Z " fill="#EAE8E5" transform="translate(674,614)"/>
<path d="M0 0 C1.8871875 0.0309375 1.8871875 0.0309375 3.8125 0.0625 C3.8125 3.3625 3.8125 6.6625 3.8125 10.0625 C3.4825 10.0625 3.1525 10.0625 2.8125 10.0625 C2.8125 7.7525 2.8125 5.4425 2.8125 3.0625 C-0.8175 3.0625 -4.4475 3.0625 -8.1875 3.0625 C-6.45706736 -0.39836529 -3.47359009 -0.0569441 0 0 Z " fill="#080808" transform="translate(794.1875,569.9375)"/>
<path d="M0 0 C-1.38238352 3.10009769 -2.98578859 5.28263873 -5.375 7.6875 C-5.96023438 8.28949219 -6.54546875 8.89148438 -7.1484375 9.51171875 C-9.12608914 11.10135013 -10.5214179 11.5905426 -13 12 C-2.93659942 0 -2.93659942 0 0 0 Z " fill="#5AB080" transform="translate(376,561)"/>
<path d="M0 0 C0 0.66 0 1.32 0 2 C-5.64399358 4.44064587 -10.97751478 4.19289099 -17 4 C-14.19547298 2.48300584 -11.6142698 1.54691437 -8.5 0.875 C-7.7471875 0.70742188 -6.994375 0.53984375 -6.21875 0.3671875 C-4 0 -4 0 0 0 Z " fill="#020203" transform="translate(930,517)"/>
<path d="M0 0 C3.83475164 0.21912867 4.94164113 0.94028394 7.6875 3.75 C9.66092779 6.52346608 10.96081447 8.787972 12 12 C11.01 12.33 10.02 12.66 9 13 C8.68546875 12.31292969 8.3709375 11.62585938 8.046875 10.91796875 C7.40492188 9.56638672 7.40492188 9.56638672 6.75 8.1875 C6.33234375 7.29417969 5.9146875 6.40085937 5.484375 5.48046875 C3.93460211 2.89071669 2.51599234 1.61819166 0 0 Z " fill="#DCDCDC" transform="translate(859,453)"/>
<path d="M0 0 C4.10110762 1.40398279 6.98089159 3.37087038 10.3125 6.125 C11.19550781 6.84945312 12.07851562 7.57390625 12.98828125 8.3203125 C13.65214844 8.87460937 14.31601563 9.42890625 15 10 C14.67 10.66 14.34 11.32 14 12 C3.25740319 4.88610478 3.25740319 4.88610478 0 0 Z " fill="#5CB383" transform="translate(215,550)"/>
<path d="M0 0 C0.33 0 0.66 0 1 0 C1 1.98 1 3.96 1 6 C1.66 6 2.32 6 3 6 C2.67 12.93 2.34 19.86 2 27 C1.67 27 1.34 27 1 27 C0.67 18.09 0.34 9.18 0 0 Z " fill="#19241D" transform="translate(409,459)"/>
<path d="M0 0 C0 0.33 0 0.66 0 1 C-1.21236328 1.14695312 -1.21236328 1.14695312 -2.44921875 1.296875 C-10.53689391 2.30423143 -10.53689391 2.30423143 -17 7 C-17 5.68 -17 4.36 -17 3 C-16.34 3 -15.68 3 -15 3 C-15 2.34 -15 1.68 -15 1 C-10.05183286 -1.80396138 -5.38317715 -0.77350507 0 0 Z " fill="#161616" transform="translate(804,463)"/>
<path d="M0 0 C3.63559661 3.43361902 6.36113346 6.7973607 9 11 C8.67 11.66 8.34 12.32 8 13 C4.80967502 10.05508463 2.90855213 8.23990994 2 4 C1.01 3.67 0.02 3.34 -1 3 C-0.67 2.01 -0.34 1.02 0 0 Z " fill="#2E2E2E" transform="translate(390,391)"/>
<path d="M0 0 C0.66 0 1.32 0 2 0 C2.33 5.28 2.66 10.56 3 16 C1 15 1 15 0.37890625 13.296875 C-0.06955765 10.57835155 -0.09529082 8.00442923 -0.0625 5.25 C-0.05347656 4.26515625 -0.04445313 3.2803125 -0.03515625 2.265625 C-0.02355469 1.51796875 -0.01195312 0.7703125 0 0 Z " fill="#D9DAD9" transform="translate(682,617)"/>
<path d="M0 0 C0.79921875 0.0515625 1.5984375 0.103125 2.421875 0.15625 C3.246875 0.22070312 4.071875 0.28515625 4.921875 0.3515625 C6.18257812 0.43664062 6.18257812 0.43664062 7.46875 0.5234375 C9.53716542 0.66446582 11.6046396 0.81918038 13.671875 0.9765625 C13.671875 1.3065625 13.671875 1.6365625 13.671875 1.9765625 C12.58648438 2.02554687 11.50109375 2.07453125 10.3828125 2.125 C8.93747716 2.20008236 7.49216581 2.27562778 6.046875 2.3515625 C5.33402344 2.3825 4.62117187 2.4134375 3.88671875 2.4453125 C-0.49965108 2.68676405 -4.1876084 3.36998981 -8.328125 4.9765625 C-8.328125 3.9865625 -8.328125 2.9965625 -8.328125 1.9765625 C-5.35863922 0.25707765 -3.41360275 -0.24382877 0 0 Z " fill="#B9B9B8" transform="translate(839.328125,449.0234375)"/>
<path d="M0 0 C0.99 0.33 1.98 0.66 3 1 C2.34 1 1.68 1 1 1 C0.938125 1.5775 0.87625 2.155 0.8125 2.75 C-0.34949276 5.9678261 -2.20579693 7.09486154 -5 9 C-7.8125 10.25 -7.8125 10.25 -10 11 C-6.79239749 7.19364503 -3.59253891 3.45436433 0 0 Z " fill="#519D75" transform="translate(346,422)"/>
<path d="M0 0 C0.33 0.99 0.66 1.98 1 3 C-8.41002278 5.29612756 -8.41002278 5.29612756 -13 5 C-8.94191935 2.2946129 -4.95110601 0 0 0 Z " fill="#4C936C" transform="translate(311,525)"/>
<path d="M0 0 C0.66 1.32 1.32 2.64 2 4 C0.90716423 5.03295436 -0.19970579 6.05107835 -1.3125 7.0625 C-1.92738281 7.63097656 -2.54226563 8.19945312 -3.17578125 8.78515625 C-3.77777344 9.18605469 -4.37976563 9.58695312 -5 10 C-5.99 9.67 -6.98 9.34 -8 9 C-7.50628906 8.51789063 -7.01257813 8.03578125 -6.50390625 7.5390625 C-5.86324219 6.90742188 -5.22257812 6.27578125 -4.5625 5.625 C-3.92441406 4.99851562 -3.28632813 4.37203125 -2.62890625 3.7265625 C-0.92117824 2.08276939 -0.92117824 2.08276939 0 0 Z " fill="#1E2D24" transform="translate(338,412)"/>
<path d="M0 0 C3.96 0 7.92 0 12 0 C12 0.66 12 1.32 12 2 C12.99 2.33 13.98 2.66 15 3 C10.05 3 5.1 3 0 3 C0 2.01 0 1.02 0 0 Z " fill="#E4E2E0" transform="translate(711,568)"/>
<path d="M0 0 C0.33 0.66 0.66 1.32 1 2 C-0.09966775 3.29549899 -1.20491801 4.58626071 -2.3125 5.875 C-2.92738281 6.59429687 -3.54226563 7.31359375 -4.17578125 8.0546875 C-6 10 -6 10 -9 12 C-9 10.68 -9 9.36 -9 8 C-6.75 6 -6.75 6 -4 4 C-2.64852862 2.68505488 -1.30887458 1.35735142 0 0 Z " fill="#202021" transform="translate(579,505)"/>
<path d="M0 0 C0.99 0.33 1.98 0.66 3 1 C3 1.66 3 2.32 3 3 C2.34 3 1.68 3 1 3 C0.7525 3.763125 0.505 4.52625 0.25 5.3125 C-1.10995558 8.2364045 -2.31585826 9.30004356 -5 11 C-5.66 10.67 -6.32 10.34 -7 10 C-6.57847656 9.52949219 -6.15695312 9.05898438 -5.72265625 8.57421875 C-5.17480469 7.95160156 -4.62695312 7.32898438 -4.0625 6.6875 C-3.51722656 6.07261719 -2.97195313 5.45773437 -2.41015625 4.82421875 C-0.79918441 2.94758042 -0.79918441 2.94758042 0 0 Z " fill="#1D1E1E" transform="translate(576,619)"/>
<path d="M0 0 C1.4049404 3.89060419 0.69513239 7.23092362 0.0625 11.25 C-0.13214844 12.51328125 -0.32679688 13.7765625 -0.52734375 15.078125 C-0.68332031 16.04234375 -0.83929687 17.0065625 -1 18 C-1.33 18 -1.66 18 -2 18 C-3.11602213 11.86187827 -2.90785354 6.97184293 -1 1 C-0.67 0.67 -0.34 0.34 0 0 Z " fill="#020303" transform="translate(619,594)"/>
<path d="M0 0 C-1.55603771 3.81936528 -3.95604931 6.26044438 -7 9 C-7.66 9 -8.32 9 -9 9 C-7.39537511 4.18612534 -5.52128094 0 0 0 Z " fill="#060607" transform="translate(548,576)"/>
<path d="M0 0 C0.33 0 0.66 0 1 0 C1.33 3.96 1.66 7.92 2 12 C1.01 12 0.02 12 -1 12 C-1.02687279 10.18757948 -1.04633715 8.37504767 -1.0625 6.5625 C-1.07410156 5.55316406 -1.08570313 4.54382813 -1.09765625 3.50390625 C-1 1 -1 1 0 0 Z " fill="#030404" transform="translate(605,600)"/>
<path d="M0 0 C1.6254308 0.14095064 3.25034051 0.28792087 4.875 0.4375 C5.77992188 0.51871094 6.68484375 0.59992187 7.6171875 0.68359375 C10 1 10 1 12 2 C12 2.99 12 3.98 12 5 C9.69 4.67 7.38 4.34 5 4 C5 3.01 5 2.02 5 1 C3.35 1 1.7 1 0 1 C0 0.67 0 0.34 0 0 Z " fill="#272828" transform="translate(719,571)"/>
<path d="M0 0 C1.07894531 0.03480469 2.15789063 0.06960938 3.26953125 0.10546875 C4.35621094 0.13253906 5.44289063 0.15960937 6.5625 0.1875 C7.80966797 0.23970703 7.80966797 0.23970703 9.08203125 0.29296875 C8.09203125 0.78796875 8.09203125 0.78796875 7.08203125 1.29296875 C7.08203125 1.95296875 7.08203125 2.61296875 7.08203125 3.29296875 C2.79203125 3.29296875 -1.49796875 3.29296875 -5.91796875 3.29296875 C-2.91796875 0.29296875 -2.91796875 0.29296875 0 0 Z " fill="#E9E8E6" transform="translate(914.91796875,521.70703125)"/>
<path d="M0 0 C3.82601307 1.45124634 5.22329124 3.35774704 7 7 C7 7.99 7 8.98 7 10 C2.95868733 8.65289578 2.09711566 6.61571666 0 3 C0 2.01 0 1.02 0 0 Z " fill="#161616" transform="translate(635,465)"/>
<path d="M0 0 C0.33 0 0.66 0 1 0 C1.30192308 7.85 1.30192308 7.85 -1 11 C-1.99 11.33 -2.98 11.66 -4 12 C-2 3.42857143 -2 3.42857143 0 0 Z " fill="#4D966E" transform="translate(166,419)"/>
<path d="M0 0 C-3.82191956 2.11675545 -6.61295513 2.31905781 -11 2 C-11.99 1.34 -12.98 0.68 -14 0 C-9.20699867 -1.39151652 -4.84864218 -0.68662689 0 0 Z " fill="#C4C4C3" transform="translate(718,628)"/>
<path d="M0 0 C-1.12005631 3.36016893 -2.37211797 4.69064913 -5 7 C-5.66 7 -6.32 7 -7 7 C-7 9.31 -7 11.62 -7 14 C-8.1875 12.4375 -8.1875 12.4375 -9 10 C-7.52551461 5.33079626 -5.64632312 0 0 0 Z " fill="#050506" transform="translate(556,610)"/>
<path d="M0 0 C1.65 0.33 3.3 0.66 5 1 C2.03716687 3.38672669 -0.94270509 5.7353371 -4 8 C-4 5 -4 5 -2 2 C-1.34 2 -0.68 2 0 2 C0 1.34 0 0.68 0 0 Z " fill="#1C1D1D" transform="translate(779,584)"/>
<path d="M0 0 C7.48291572 6.15034169 7.48291572 6.15034169 10 10 C6.7451198 9.41978222 5.06347592 8.47352859 2.75 6.125 C2.22921875 5.61195313 1.7084375 5.09890625 1.171875 4.5703125 C0 3 0 3 0 0 Z " fill="#5AB181" transform="translate(188,561)"/>
<path d="M0 0 C2.74277578 3.19990508 4.6302836 6.00499382 6 10 C5.01 10 4.02 10 3 10 C2.30289269 8.71349294 1.61757124 7.42059335 0.9375 6.125 C0.36322266 5.04605469 0.36322266 5.04605469 -0.22265625 3.9453125 C-0.47917969 3.30335938 -0.73570312 2.66140625 -1 2 C-0.67 1.34 -0.34 0.68 0 0 Z " fill="#4F9B71" transform="translate(232,502)"/>
<path d="M0 0 C0 0.66 0 1.32 0 2 C-5.41176471 6 -5.41176471 6 -8 6 C-8 4.02 -8 2.04 -8 0 C-5.13822943 -1.43088528 -3.06624227 -0.59991697 0 0 Z " fill="#DDDDDB" transform="translate(792,452)"/>
<path d="M0 0 C2.94897721 2.74559948 5.26205705 5.34117274 7 9 C6.57421875 11.15625 6.57421875 11.15625 6 13 C4.99193149 11.40089132 3.99379615 9.79551738 3 8.1875 C2.443125 7.29417969 1.88625 6.40085937 1.3125 5.48046875 C0 3 0 3 0 0 Z " fill="#E3E3E2" transform="translate(520,624)"/>
<path d="M0 0 C2.97 0.495 2.97 0.495 6 1 C5 3 5 3 2.1875 4.1875 C-0.85961076 4.96421451 -2.13749363 5.10096399 -5 4 C-4.01 4 -3.02 4 -2 4 C-1.34 2.68 -0.68 1.36 0 0 Z " fill="#313232" transform="translate(322,605)"/>
<path d="M0 0 C0.33 0.66 0.66 1.32 1 2 C-1.85276137 4.93200474 -4.65079784 7.64315404 -8 10 C-7.9375 7.8125 -7.9375 7.8125 -7 5 C-4.8282781 3.06842043 -2.47398953 1.51798313 0 0 Z " fill="#1B1C1C" transform="translate(942,507)"/>
<path d="M0 0 C0 0.66 0 1.32 0 2 C-3.90028225 4.60018816 -7.47434569 4.15085514 -12 4 C-12.33 3.34 -12.66 2.68 -13 2 C-11.20873548 1.66451233 -9.41697413 1.33167645 -7.625 1 C-6.62726563 0.814375 -5.62953125 0.62875 -4.6015625 0.4375 C-2 0 -2 0 0 0 Z " fill="#14110E" transform="translate(291,488)"/>
<path d="M0 0 C0.99 0 1.98 0 3 0 C3.66 2.64 4.32 5.28 5 8 C4.01 8.33 3.02 8.66 2 9 C1.34 6.03 0.68 3.06 0 0 Z " fill="#1B1B1B" transform="translate(577,470)"/>
<path d="M0 0 C0 3 0 3 -1 5 C-2.65 5 -4.3 5 -6 5 C-6 4.34 -6 3.68 -6 3 C-8.97 3 -11.94 3 -15 3 C-15 2.67 -15 2.34 -15 2 C-14.08476562 2.02320313 -13.16953125 2.04640625 -12.2265625 2.0703125 C-10.44378906 2.09738281 -10.44378906 2.09738281 -8.625 2.125 C-6.84996094 2.15980469 -6.84996094 2.15980469 -5.0390625 2.1953125 C-1.88846183 2.32866229 -1.88846183 2.32866229 0 0 Z " fill="#5AB281" transform="translate(293,456)"/>
<path d="M0 0 C6.15234375 0.5859375 6.15234375 0.5859375 8 1 C8.33 1.66 8.66 2.32 9 3 C11.01669827 4.13350534 11.01669827 4.13350534 13 5 C11 6 11 6 8.3984375 5.22265625 C6.90183594 4.64837891 6.90183594 4.64837891 5.375 4.0625 C4.37210937 3.68222656 3.36921875 3.30195313 2.3359375 2.91015625 C1.56507813 2.60980469 0.79421875 2.30945313 0 2 C0 1.34 0 0.68 0 0 Z " fill="#1C2820" transform="translate(289,432)"/>
<path d="M0 0 C0.33 0.99 0.66 1.98 1 3 C-0.109375 5.04296875 -0.109375 5.04296875 -1.75 7.1875 C-2.28109375 7.90292969 -2.8121875 8.61835937 -3.359375 9.35546875 C-3.90078125 9.89816406 -4.4421875 10.44085937 -5 11 C-5.99 11 -6.98 11 -8 11 C-5.36 7.37 -2.72 3.74 0 0 Z " fill="#59AF80" transform="translate(354,519)"/>
<path d="M0 0 C0.33 0 0.66 0 1 0 C0.88512252 1.58409994 0.75765492 3.16728963 0.625 4.75 C0.52058594 6.07257813 0.52058594 6.07257813 0.4140625 7.421875 C0.00149945 9.99066382 -0.71160957 11.75841015 -2 14 C-3.25127906 10.45332822 -2.72285053 8.27746562 -1.5625 4.75 C-1.27503906 3.85796875 -0.98757813 2.9659375 -0.69140625 2.046875 C-0.46324219 1.37140625 -0.23507812 0.6959375 0 0 Z " fill="#5FBB88" transform="translate(405,501)"/>
<path d="M0 0 C0.33 0 0.66 0 1 0 C1.125 7.75 1.125 7.75 0 10 C-0.66 10 -1.32 10 -2 10 C-2.33 10.99 -2.66 11.98 -3 13 C-4 11 -4 11 -3.22265625 8.3984375 C-2.83980469 7.40070313 -2.45695312 6.40296875 -2.0625 5.375 C-1.68222656 4.37210937 -1.30195313 3.36921875 -0.91015625 2.3359375 C-0.60980469 1.56507813 -0.30945313 0.79421875 0 0 Z " fill="#4B926B" transform="translate(375,501)"/>
<path d="M0 0 C0.66 0.33 1.32 0.66 2 1 C-0.33333333 3.33333333 -2.66666667 5.66666667 -5 8 C-5.99 7.67 -6.98 7.34 -8 7 C-5.36 4.69 -2.72 2.38 0 0 Z " fill="#1D2B22" transform="translate(308,444)"/>
<path d="M0 0 C0.33 0 0.66 0 1 0 C1.62645012 8.14385151 1.62645012 8.14385151 -0.875 11.5625 C-3 13 -3 13 -5 13 C-3.79618552 10.50638429 -2.54571278 8.31856917 -1 6 C-0.60986284 4.0103005 -0.26797351 2.00980131 0 0 Z " fill="#323232" transform="translate(755,427)"/>
<path d="M0 0 C4.66666667 0.66666667 9.33333333 1.33333333 14 2 C14 2.33 14 2.66 14 3 C9.02936879 3.91297308 4.97063121 3.91297308 0 3 C0 2.01 0 1.02 0 0 Z " fill="#4D986F" transform="translate(302,351)"/>
<path d="M0 0 C0.33 0 0.66 0 1 0 C1.02725341 1.7290774 1.04650987 3.45828176 1.0625 5.1875 C1.07410156 6.15042969 1.08570313 7.11335937 1.09765625 8.10546875 C1.00486622 10.85576513 0.62111685 13.32479591 0 16 C-1.46870279 13.6673544 -2.06240603 12.46180464 -1.6875 9.6875 C-1.460625 8.800625 -1.23375 7.91375 -1 7 C-0.65596692 4.66822025 -0.32050798 2.33512959 0 0 Z " fill="#CECECD" transform="translate(686,505)"/>
<path d="M0 0 C4.98777148 2.49388574 5.51258849 4.20284924 8 9 C7.34 9.66 6.68 10.32 6 11 C4.02 7.37 2.04 3.74 0 0 Z " fill="#D9D9D8" transform="translate(645,457)"/>
<path d="M0 0 C0 0.66 0 1.32 0 2 C-1.64453125 3.5078125 -1.64453125 3.5078125 -3.8125 5.125 C-4.52019531 5.66382813 -5.22789062 6.20265625 -5.95703125 6.7578125 C-8 8 -8 8 -11 8 C-10.04578192 6.85073734 -9.08647955 5.70569459 -8.125 4.5625 C-7.59132813 3.92441406 -7.05765625 3.28632813 -6.5078125 2.62890625 C-4.27268848 0.21427745 -3.3395179 0 0 0 Z " fill="#040506" transform="translate(837,452)"/>
<path d="M0 0 C3.3 0 6.6 0 10 0 C10.33 0.99 10.66 1.98 11 3 C7.04 2.67 3.08 2.34 -1 2 C-0.67 1.34 -0.34 0.68 0 0 Z " fill="#010202" transform="translate(800,451)"/>
<path d="M0 0 C4.77576339 0.4682121 8.04476345 1.24331998 12 4 C11.67 4.66 11.34 5.32 11 6 C7.37 4.35 3.74 2.7 0 1 C0 0.67 0 0.34 0 0 Z " fill="#5CB583" transform="translate(293,436)"/>
<path d="M0 0 C4.3177458 0.50797009 8.03302114 1.19682779 12 3 C11.67 3.66 11.34 4.32 11 5 C9.35153231 4.55123384 7.70626545 4.09069512 6.0625 3.625 C5.14597656 3.36976563 4.22945313 3.11453125 3.28515625 2.8515625 C1 2 1 2 0 0 Z " fill="#59AF7F" transform="translate(324,358)"/>
<path d="M0 0 C-3.01031744 0.93423645 -3.86650268 1.04449911 -7 0 C-9.05893621 -0.22325814 -11.12233653 -0.40705759 -13.1875 -0.5625 C-14.81751953 -0.68818359 -14.81751953 -0.68818359 -16.48046875 -0.81640625 C-17.31191406 -0.87699219 -18.14335937 -0.93757813 -19 -1 C-19 -1.33 -19 -1.66 -19 -2 C-5.18223235 -3.70159453 -5.18223235 -3.70159453 0 0 Z " fill="#264131" transform="translate(313,352)"/>
<path d="M0 0 C0.33 0 0.66 0 1 0 C1.36463732 1.74784829 1.7163078 3.49840502 2.0625 5.25 C2.25972656 6.22453125 2.45695312 7.1990625 2.66015625 8.203125 C2.98397535 10.868119 2.85503199 12.48871723 2 15 C-1.125 5.625 -1.125 5.625 0 0 Z " fill="#C2C1C1" transform="translate(265,717)"/>
<path d="M0 0 C0.66 0.33 1.32 0.66 2 1 C-0.31 3.64 -2.62 6.28 -5 9 C-5.99 8.34 -6.98 7.68 -8 7 C-5.36 4.69 -2.72 2.38 0 0 Z M-8 9 C-6 10 -6 10 -6 10 Z " fill="#1E2E24" transform="translate(365,572)"/>
<path d="M0 0 C0.66 0.33 1.32 0.66 2 1 C0.5361389 5.39158329 -1.97831338 5.87947433 -6 8 C-4.73058503 4.08597051 -3.48832306 2.20927127 0 0 Z " fill="#191A1B" transform="translate(621,573)"/>
<path d="M0 0 C2.31 0.66 4.62 1.32 7 2 C3.25667087 4.00535489 0.26323685 5 -4 5 C-2.68 3.35 -1.36 1.7 0 0 Z " fill="#262726" transform="translate(641,498)"/>
<path d="M0 0 C3.31038651 1.65519326 3.78867011 4.65442221 5 8 C4.67 8.99 4.34 9.98 4 11 C2 10 2 10 0.875 7.1875 C0 4 0 4 0 0 Z " fill="#5AB281" transform="translate(240,488)"/>
<path d="M0 0 C0.66 0.33 1.32 0.66 2 1 C-0.65654657 4.73884332 -2.58110387 6.64978174 -7 8 C-5.50902342 4.2047869 -3.24299151 2.38957269 0 0 Z " fill="#1F3126" transform="translate(275,461)"/>
<path d="M0 0 C0.99 0.33 1.98 0.66 3 1 C0.36 3.64 -2.28 6.28 -5 9 C-5.66 8.67 -6.32 8.34 -7 8 C-4.69 5.36 -2.38 2.72 0 0 Z " fill="#5BB282" transform="translate(312,455)"/>
<path d="M0 0 C2 1 2 1 3.125 3.1875 C4.08328236 6.26769331 4.14915816 8.79309948 4 12 C3.34 11.67 2.68 11.34 2 11 C1.3671875 8.49609375 1.3671875 8.49609375 0.875 5.4375 C0.70742188 4.42558594 0.53984375 3.41367187 0.3671875 2.37109375 C0.24601562 1.58863281 0.12484375 0.80617188 0 0 Z " fill="#5BB283" transform="translate(401,435)"/>
<path d="M0 0 C5.62541841 0.45003347 8.61487125 1.68441485 13 5 C10.34501768 6.0169313 9.30844625 6.13022151 6.640625 5.00390625 C5.85171875 4.52824219 5.0628125 4.05257813 4.25 3.5625 C3.45078125 3.08941406 2.6515625 2.61632812 1.828125 2.12890625 C1.22484375 1.75636719 0.6215625 1.38382812 0 1 C0 0.67 0 0.34 0 0 Z " fill="#519D73" transform="translate(303,425)"/>
<path d="M0 0 C1 2 1 2 0.375 4.4375 C-1.27706844 7.51635481 -2.91798591 8.45899296 -6 10 C-4.6302836 6.00499382 -2.74277578 3.19990508 0 0 Z " fill="#1C2720" transform="translate(207,411)"/>
<path d="M0 0 C0 3 0 3 -2.3125 5.6875 C-5 8 -5 8 -8 8 C-8.33 7.34 -8.66 6.68 -9 6 C-6 4 -3 2 0 0 Z " fill="#232324" transform="translate(655,620)"/>
<path d="M0 0 C0.66 0 1.32 0 2 0 C0.62487859 2.96179996 -1.00369426 5.42143842 -3 8 C-3.66 8.99 -4.32 9.98 -5 11 C-5.38613383 8.37428995 -5.38493778 6.6156121 -3.95703125 4.33203125 C-2.625 2.6875 -2.625 2.6875 0 0 Z " fill="#E5E5E4" transform="translate(689,605)"/>
<path d="M0 0 C0.66 0.33 1.32 0.66 2 1 C-1.0657052 5.65987191 -3.58657319 6.85485202 -9 8 C-6.17493137 5.0702992 -3.21203935 2.49825283 0 0 Z " fill="#AEAEAD" transform="translate(366,585)"/>
<path d="M0 0 C0.66 0.33 1.32 0.66 2 1 C-0.31 3.31 -2.62 5.62 -5 8 C-5.33 7.34 -5.66 6.68 -6 6 C-4.75 3.4375 -4.75 3.4375 -3 1 C-2.01 0.67 -1.02 0.34 0 0 Z " fill="#E0DFDD" transform="translate(387,568)"/>
<path d="M0 0 C0 3 0 3 -1.53125 4.82421875 C-2.1809375 5.43910156 -2.830625 6.05398438 -3.5 6.6875 C-4.1496875 7.31011719 -4.799375 7.93273437 -5.46875 8.57421875 C-5.9740625 9.04472656 -6.479375 9.51523437 -7 10 C-7.33 9.01 -7.66 8.02 -8 7 C-5.36 4.69 -2.72 2.38 0 0 Z " fill="#5BB282" transform="translate(345,532)"/>
<path d="M0 0 C0.99 0.33 1.98 0.66 3 1 C3.96070434 3.88211302 4.10581883 5.69850044 4.0625 8.6875 C4.05347656 9.49574219 4.04445313 10.30398438 4.03515625 11.13671875 C4.02355469 11.75160156 4.01195312 12.36648438 4 13 C2.42445965 10.11371599 1.53723627 7.46657616 0.875 4.25 C0.70742188 3.45078125 0.53984375 2.6515625 0.3671875 1.828125 C0.24601563 1.22484375 0.12484375 0.6215625 0 0 Z " fill="#020202" transform="translate(865,462)"/>
<path d="M0 0 C0.66 0.33 1.32 0.66 2 1 C0.576875 2.36125 0.576875 2.36125 -0.875 3.75 C-3.14549867 6.00978877 -4.83296506 7.96570916 -6 11 C-6.66 11 -7.32 11 -8 11 C-6.52670958 5.99081256 -3.72484762 3.48192278 0 0 Z " fill="#323232" transform="translate(895,456)"/>
<path d="M0 0 C0.66 0.33 1.32 0.66 2 1 C-0.97 4.3 -3.94 7.6 -7 11 C-7 7.22089522 -6.00296038 6.53893899 -3.5 3.8125 C-2.8503125 3.09707031 -2.200625 2.38164062 -1.53125 1.64453125 C-1.0259375 1.10183594 -0.520625 0.55914062 0 0 Z " fill="#272727" transform="translate(531,456)"/>
<path d="M0 0 C2.31 0.33 4.62 0.66 7 1 C7 1.99 7 2.98 7 4 C5.02 4 3.04 4 1 4 C0.67 2.68 0.34 1.36 0 0 Z " fill="#212222" transform="translate(743,437)"/>
<path d="M0 0 C0 0.66 0 1.32 0 2 C-1.24420647 2.5345256 -2.49570936 3.05208611 -3.75 3.5625 C-4.44609375 3.85253906 -5.1421875 4.14257812 -5.859375 4.44140625 C-8.30012784 5.07831803 -9.6403655 4.80248831 -12 4 C-2.7826087 0 -2.7826087 0 0 0 Z " fill="#14110F" transform="translate(261,390)"/>
<path d="M0 0 C0.99 0.33 1.98 0.66 3 1 C-1.75 5.875 -1.75 5.875 -4 7 C-3.43628586 3.73045798 -2.50037734 2.17424117 0 0 Z " fill="#141415" transform="translate(724,633)"/>
<path d="M0 0 C-1.44472346 3.80881639 -3.32603071 5.29742886 -7 7 C-7.99 6.67 -8.98 6.34 -10 6 C-8.71283353 4.99421411 -7.42011342 3.99553202 -6.125 3 C-5.40570313 2.443125 -4.68640625 1.88625 -3.9453125 1.3125 C-2 0 -2 0 0 0 Z " fill="#5BB282" transform="translate(333,544)"/>
<path d="M0 0 C2 4 2 4 1.3125 6.6875 C0 9 0 9 -3 10 C-2.01 6.7 -1.02 3.4 0 0 Z " fill="#CDCCCB" transform="translate(413,519)"/>
<path d="M0 0 C3.37462715 0.54723683 5.08235 1.0549 8 3 C7.34 3 6.68 3 6 3 C5.67 3.66 5.34 4.32 5 5 C2.525 4.01 2.525 4.01 0 3 C0 2.01 0 1.02 0 0 Z " fill="#282829" transform="translate(931,498)"/>
<path d="M0 0 C0.66 0.66 1.32 1.32 2 2 C-0.97 4.475 -0.97 4.475 -4 7 C-4.33 6.34 -4.66 5.68 -5 5 C-3.35 3.35 -1.7 1.7 0 0 Z " fill="#171817" transform="translate(612,465)"/>
<path d="M0 0 C2.97 0 5.94 0 9 0 C9 0.66 9 1.32 9 2 C9.99 2.33 10.98 2.66 12 3 C9.18185434 4.40907283 7.82722796 3.50872691 4.875 2.5625 C3.96492188 2.27503906 3.05484375 1.98757813 2.1171875 1.69140625 C1.41851562 1.46324219 0.71984375 1.23507812 0 1 C0 0.67 0 0.34 0 0 Z " fill="#A1A09F" transform="translate(315,342)"/>
<path d="M0 0 C0 0.33 0 0.66 0 1 C-5.12583611 1.10251672 -9.94997778 1.03590199 -15 0 C-15 -0.33 -15 -0.66 -15 -1 C-9.53891111 -2.4002792 -5.30723432 -1.42705634 0 0 Z " fill="#2B2A2B" transform="translate(268,613)"/>
<path d="M0 0 C3.51716303 3.51716303 3.54676163 5.19567333 4 10 C3.34 10 2.68 10 2 10 C1.34 6.7 0.68 3.4 0 0 Z " fill="#E7E7E7" transform="translate(739,580)"/>
<path d="M0 0 C1.27875 0.103125 2.5575 0.20625 3.875 0.3125 C4.95394531 0.39951172 4.95394531 0.39951172 6.0546875 0.48828125 C8 1 8 1 10 4 C8.72125 3.896875 7.4425 3.79375 6.125 3.6875 C5.04605469 3.60048828 5.04605469 3.60048828 3.9453125 3.51171875 C2 3 2 3 0 0 Z " fill="#529F74" transform="translate(258,558)"/>
<path d="M0 0 C1 2 1 2 0.1875 5 C-1 8 -1 8 -3 10 C-3.66 10 -4.32 10 -5 10 C-3.33333333 6.66666667 -1.66666667 3.33333333 0 0 Z " fill="#C0C0BF" transform="translate(403,542)"/>
<path d="M0 0 C3.7952131 1.49097658 5.61042731 3.75700849 8 7 C7.01 7 6.02 7 5 7 C0 1.53488372 0 1.53488372 0 0 Z " fill="#5CB484" transform="translate(206,541)"/>
<path d="M0 0 C1.95582488 2.93373731 3.56224304 5.78216298 5 9 C4.67 9.66 4.34 10.32 4 11 C1.38726012 9.69363006 1.02763876 8.71590242 0 6 C-0.125 2.75 -0.125 2.75 0 0 Z " fill="#4E9A71" transform="translate(190,511)"/>
<path d="M0 0 C2.64 0.33 5.28 0.66 8 1 C8.33 2.65 8.66 4.3 9 6 C8.67 5.34 8.34 4.68 8 4 C7.01 4 6.02 4 5 4 C5 3.34 5 2.68 5 2 C3.35 1.67 1.7 1.34 0 1 C0 0.67 0 0.34 0 0 Z " fill="#DBDBDA" transform="translate(572,499)"/>
<path d="M0 0 C0.33 0 0.66 0 1 0 C0.67 3.96 0.34 7.92 0 12 C-2.17975966 8.73036051 -2.36904422 7.78270322 -2 4 C-1 1.6875 -1 1.6875 0 0 Z " fill="#303030" transform="translate(418,493)"/>
<path d="M0 0 C0.99 0.33 1.98 0.66 3 1 C1.68 1.99 0.36 2.98 -1 4 C-0.67 2.68 -0.34 1.36 0 0 Z M-6 7 C-5.34 7.33 -4.68 7.66 -4 8 C-4.99 8.66 -5.98 9.32 -7 10 C-6.67 9.01 -6.34 8.02 -6 7 Z " fill="#131010" transform="translate(300,452)"/>
<path d="M0 0 C0.33 0.66 0.66 1.32 1 2 C-0.25 5.0625 -0.25 5.0625 -2 8 C-2.99 8.33 -3.98 8.66 -5 9 C-3.7508258 5.54074837 -2.32472205 2.85306797 0 0 Z " fill="#1F2E25" transform="translate(238,440)"/>
<path d="M0 0 C0.99 0.33 1.98 0.66 3 1 C1.90554162 1.86657116 0.79902219 2.71792724 -0.3125 3.5625 C-0.92738281 4.03816406 -1.54226562 4.51382812 -2.17578125 5.00390625 C-2.77777344 5.33261719 -3.37976563 5.66132813 -4 6 C-4.99 5.67 -5.98 5.34 -7 5 C-2.25 1.125 -2.25 1.125 0 0 Z " fill="#59B181" transform="translate(257,423)"/>
<path d="M0 0 C0.66 0.99 1.32 1.98 2 3 C1.67 3.99 1.34 4.98 1 6 C0.34 6 -0.32 6 -1 6 C-1.66 7.32 -2.32 8.64 -3 10 C-2.49287967 6.28111761 -1.88391785 3.26545761 0 0 Z " fill="#555655" transform="translate(156,415)"/>
<path d="M0 0 C-2.90092502 1.93395001 -3.89674737 2.30131941 -7.1875 2.625 C-8.445625 2.74875 -9.70375 2.8725 -11 3 C-7.18178484 -0.02823961 -4.81391924 -1.49397494 0 0 Z " fill="#131211" transform="translate(250,352)"/>
<path d="M0 0 C0.33 0.99 0.66 1.98 1 3 C-5.75 2.25 -5.75 2.25 -8 0 C-4.71023192 -1.09658936 -3.28696233 -0.79953138 0 0 Z " fill="#B7B7B6" transform="translate(343,349)"/>
<path d="M0 0 C2.91589609 4.37384413 4.30254716 7.70542471 4 13 C0.25474201 9.25474201 0.31090051 5.01729091 0 0 Z " fill="#D7D7D6" transform="translate(253,679)"/>
<path d="M0 0 C0.66 0.33 1.32 0.66 2 1 C2 1.99 2 2.98 2 4 C0.68 4.33 -0.64 4.66 -2 5 C-2.33 6.32 -2.66 7.64 -3 9 C-3.33 8.34 -3.66 7.68 -4 7 C-3.22265625 5.2734375 -3.22265625 5.2734375 -2.0625 3.375 C-1.381875 2.26125 -0.70125 1.1475 0 0 Z " fill="#A6A5A4" transform="translate(310,675)"/>
<path d="M0 0 C-2.39509338 2.89932357 -4.31245243 3.50168276 -8 4 C-8 3.01 -8 2.02 -8 1 C-4.93251126 -0.86240388 -3.40254489 -1.2151946 0 0 Z " fill="#2E2F2E" transform="translate(705,573)"/>
<path d="M0 0 C0 0.99 0 1.98 0 3 C-1.65 3.66 -3.3 4.32 -5 5 C-5.66 4.34 -6.32 3.68 -7 3 C-2.25 0 -2.25 0 0 0 Z " fill="#4E996F" transform="translate(331,561)"/>
<path d="M0 0 C0.95465783 2.16967689 1.14401212 3.56328793 0.3984375 5.82421875 C-0.35870385 7.5684743 -1.17609198 9.28627131 -2 11 C-2.66 11 -3.32 11 -4 11 C-2.95902388 7.13351728 -1.96301592 3.50538557 0 0 Z " fill="#243C2E" transform="translate(400,523)"/>
<path d="M0 0 C-4.10457614 2.98514628 -6.97745369 3.2954439 -12 3 C-12 2.67 -12 2.34 -12 2 C-10.56656 1.46809459 -9.12804633 0.94984742 -7.6875 0.4375 C-6.48673828 0.00244141 -6.48673828 0.00244141 -5.26171875 -0.44140625 C-3 -1 -3 -1 0 0 Z " fill="#5BB282" transform="translate(326,526)"/>
<path d="M0 0 C3.93673644 1.31224548 6.22719294 2.91910327 9 6 C5.51669784 5.35494404 2.90567134 4.01782732 0 2 C0 1.34 0 0.68 0 0 Z " fill="#5CB584" transform="translate(246,521)"/>
<path d="M0 0 C0.33 0 0.66 0 1 0 C1 1.98 1 3.96 1 6 C0.34 6 -0.32 6 -1 6 C-1 7.98 -1 9.96 -1 12 C-1.33 12 -1.66 12 -2 12 C-2.28571429 3.42857143 -2.28571429 3.42857143 0 0 Z " fill="#272827" transform="translate(884,478)"/>
<path d="M0 0 C1.00289062 0.10183594 2.00578125 0.20367187 3.0390625 0.30859375 C3.80992187 0.39238281 4.58078125 0.47617187 5.375 0.5625 C5.375 0.8925 5.375 1.2225 5.375 1.5625 C0.755 2.2225 -3.865 2.8825 -8.625 3.5625 C-8.295 2.5725 -7.965 1.5825 -7.625 0.5625 C-4.89657939 -0.80171031 -3.01546682 -0.31557211 0 0 Z " fill="#141515" transform="translate(914.625,462.4375)"/>
<path d="M0 0 C1.485 0.99 1.485 0.99 3 2 C2.67 4.31 2.34 6.62 2 9 C1.01 9 0.02 9 -1 9 C-0.67 6.03 -0.34 3.06 0 0 Z " fill="#4B926B" transform="translate(156,446)"/>
<path d="M0 0 C0 0.33 0 0.66 0 1 C-1.98 1 -3.96 1 -6 1 C-6.66 2.32 -7.32 3.64 -8 5 C-8.99 5 -9.98 5 -11 5 C-9.07089686 -0.78730941 -5.38986894 -0.20339128 0 0 Z " fill="#2E2F2E" transform="translate(750,422)"/>
<path d="M0 0 C2.96175123 0.61277612 4.38058783 1.25372522 7 3 C7 3.99 7 4.98 7 6 C6.01 6 5.02 6 4 6 C1.8125 3 1.8125 3 0 0 Z " fill="#59AF82" transform="translate(361,379)"/>
<path d="M0 0 C0.99 0.66 1.98 1.32 3 2 C0.03 4.475 0.03 4.475 -3 7 C-3.66 6.67 -4.32 6.34 -5 6 C-3.35 4.02 -1.7 2.04 0 0 Z " fill="#202021" transform="translate(576,632)"/>
<path d="M0 0 C0.33 0 0.66 0 1 0 C1 2.97 1 5.94 1 9 C0.34 9 -0.32 9 -1 9 C-1 9.66 -1 10.32 -1 11 C-1.66 10.67 -2.32 10.34 -3 10 C-2.67 8.68 -2.34 7.36 -2 6 C-1.34 6 -0.68 6 0 6 C0 4.02 0 2.04 0 0 Z " fill="#C7C7C7" transform="translate(577,610)"/>
<path d="M0 0 C0.33 0 0.66 0 1 0 C0.67 3.3 0.34 6.6 0 10 C-0.66 10 -1.32 10 -2 10 C-2 8.02 -2 6.04 -2 4 C-1.34 4 -0.68 4 0 4 C0 2.68 0 1.36 0 0 Z " fill="#DADAD9" transform="translate(727,610)"/>
<path d="M0 0 C2.96175123 0.61277612 4.38058783 1.25372522 7 3 C7 3.66 7 4.32 7 5 C4.0625 4.1875 4.0625 4.1875 1 3 C0.67 2.01 0.34 1.02 0 0 Z " fill="#529F74" transform="translate(218,586)"/>
<path d="M0 0 C3.93846154 3.32307692 3.93846154 3.32307692 4.25 6.75 C4.1675 7.4925 4.085 8.235 4 9 C1.98863724 6.44008376 0.37154504 3.95409701 -1 1 C-0.67 0.67 -0.34 0.34 0 0 Z " fill="#D4D4D3" transform="translate(575,460)"/>
<path d="M0 0 C0.99 0.33 1.98 0.66 3 1 C2.34 1 1.68 1 1 1 C1.33 1.99 1.66 2.98 2 4 C1.01 4.495 1.01 4.495 0 5 C-0.66 4.34 -1.32 3.68 -2 3 C-1.34 2.01 -0.68 1.02 0 0 Z " fill="#509B73" transform="translate(315,451)"/>
<path d="M0 0 C0 3.90838866 -1.50567876 5.11594107 -4 8 C-4.99 7.67 -5.98 7.34 -7 7 C-4.69 4.69 -2.38 2.38 0 0 Z " fill="#5AB081" transform="translate(302,447)"/>
<path d="M0 0 C1.32 0.33 2.64 0.66 4 1 C1.69 2.65 -0.62 4.3 -3 6 C-3 3 -3 3 -1.75 1.25 C-1.1725 0.8375 -0.595 0.425 0 0 Z " fill="#5AAF81" transform="translate(255,440)"/>
<path d="M0 0 C2.2477975 2.05233685 3.0022242 3.00667261 4 6 C3.5625 8.6875 3.5625 8.6875 3 11 C0.87953208 7.46588679 0.46800711 4.05606165 0 0 Z " fill="#CCCBC9" transform="translate(413,431)"/>
<path d="M0 0 C0.99 0.33 1.98 0.66 3 1 C1.02 3.31 -0.96 5.62 -3 8 C-3.33 7.34 -3.66 6.68 -4 6 C-1.68421053 1.68421053 -1.68421053 1.68421053 0 0 Z " fill="#5AB081" transform="translate(218,416)"/>
<path d="M0 0 C4.35535069 1.16142685 6.64619703 2.07699505 9 6 C4.64464931 4.83857315 2.35380297 3.92300495 0 0 Z " fill="#5DB786" transform="translate(322,402)"/>
<path d="M0 0 C0.33 0 0.66 0 1 0 C1.20140476 3.62528568 0.85776765 5.86501708 -1 9 C-1.66 9 -2.32 9 -3 9 C-2.01 6.03 -1.02 3.06 0 0 Z " fill="#060707" transform="translate(298,701)"/>
<path d="M0 0 C0 0.66 0 1.32 0 2 C0.99 2.33 1.98 2.66 3 3 C-3.0546875 3.1953125 -3.0546875 3.1953125 -5 3 C-5.66 2.34 -6.32 1.68 -7 1 C-2.25 0 -2.25 0 0 0 Z " fill="#4A8F6A" transform="translate(263,600)"/>
<path d="M0 0 C0.33 0.66 0.66 1.32 1 2 C0.22265625 3.7265625 0.22265625 3.7265625 -0.9375 5.625 C-1.618125 6.73875 -2.29875 7.8525 -3 9 C-3.75 7.3125 -3.75 7.3125 -4 5 C-2.0625 2.25 -2.0625 2.25 0 0 Z " fill="#59AF7F" transform="translate(371,516)"/>
<path d="M0 0 C0.99 0.495 0.99 0.495 2 1 C1.01 1.495 1.01 1.495 0 2 C0 1.34 0 0.68 0 0 Z M-4 2 C-3.34 2.99 -2.68 3.98 -2 5 C-2.66 5.66 -3.32 6.32 -4 7 C-4.99 6.67 -5.98 6.34 -7 6 C-6.01 4.68 -5.02 3.36 -4 2 Z " fill="#DEDEDD" transform="translate(945,507)"/>
<path d="M0 0 C2.52259061 1.97420135 2.9929808 2.96745642 3.6875 6.1875 C3.790625 7.115625 3.89375 8.04375 4 9 C1.47740939 7.02579865 1.0070192 6.03254358 0.3125 2.8125 C0.209375 1.884375 0.10625 0.95625 0 0 Z " fill="#5DB685" transform="translate(200,502)"/>
<path d="M0 0 C1.8125 0.1875 1.8125 0.1875 4 1 C5.75 3.5625 5.75 3.5625 7 6 C4.50638429 4.79618552 2.31856917 3.54571278 0 2 C0 1.34 0 0.68 0 0 Z " fill="#E3E3E2" transform="translate(558,466)"/>
<path d="M0 0 C0.33 0 0.66 0 1 0 C0.67 4.29 0.34 8.58 0 13 C-0.33 13 -0.66 13 -1 13 C-1.33 9.7 -1.66 6.4 -2 3 C-1.34 3 -0.68 3 0 3 C0 2.01 0 1.02 0 0 Z " fill="#C5C5C3" transform="translate(144,450)"/>
<path d="M0 0 C5.75 0.875 5.75 0.875 8 2 C8 2.66 8 3.32 8 4 C4.31245243 3.50168276 2.39509338 2.89932357 0 0 Z " fill="#5AB281" transform="translate(310,397)"/>
<path d="M0 0 C4.75 0.75 4.75 0.75 7 3 C6.67 3.99 6.34 4.98 6 6 C3.97945196 4.35830472 1.97956942 2.69088222 0 1 C0 0.67 0 0.34 0 0 Z " fill="#519C73" transform="translate(338,397)"/>
</svg>
